<?xml version="1.0" encoding="UTF-8"?>
<svg width="51px" height="57px" viewBox="0 0 51 57" version="1.1" xmlns="http://www.w3.org/2000/svg" xmlns:xlink="http://www.w3.org/1999/xlink">
    <!-- Generator: Sketch 44.1 (41455) - http://www.bohemiancoding.com/sketch -->
    <title>锁 copy</title>
    <desc>Created with Sketch.</desc>
    <defs>
        <polygon id="path-1" points="0.00190332326 0.00883918919 0.00190332326 19.9278411 20.9754789 19.9278411 20.9754789 0.00883918919"></polygon>
    </defs>
    <g id="Page-1" stroke="none" stroke-width="1" fill="none" fill-rule="evenodd">
        <g id="设备监控1" transform="translate(-504.000000, -311.000000)">
            <g id="锁" transform="translate(504.000000, 311.000000)">
                <g>
                    <ellipse id="Oval-Copy-2" fill="#7ED321" cx="25.5" cy="25.1688312" rx="25.5" ry="25.1688312"></ellipse>
                    <path d="M25.5,46.6558442 C13.4921641,46.6558442 3.75,37.0402016 3.75,25.1688312 C3.75,13.2974607 13.4921641,3.68181818 25.5,3.68181818 C37.5078359,3.68181818 47.25,13.2974607 47.25,25.1688312 C47.25,37.0402016 37.5078359,46.6558442 25.5,46.6558442 Z M25.5,43.6558442 C35.8596965,43.6558442 44.25,35.3745056 44.25,25.1688312 C44.25,14.9631567 35.8596965,6.68181818 25.5,6.68181818 C15.1403035,6.68181818 6.75,14.9631567 6.75,25.1688312 C6.75,35.3745056 15.1403035,43.6558442 25.5,43.6558442 Z" id="Oval-Copy-3" fill="#FFFFFF" fill-rule="nonzero"></path>
                    <polygon id="Triangle" fill="#7ED321" transform="translate(25.875000, 53.298701) scale(1, -1) translate(-25.875000, -53.298701) " points="25.875 49.5974026 31.5 57 20.25 57"></polygon>
                </g>
                <g id="开锁" transform="translate(13.500000, 15.000000)">
                    <mask id="mask-2" fill="white">
                        <use xlink:href="#path-1"></use>
                    </mask>
                    <g id="Clip-2"></g>
                    <path d="M19.7301344,8.36032057 L10.0837749,8.36032057 L10.0837749,5.04426231 C10.0837749,2.26714114 7.82370544,0.00883918919 5.04317221,0.00883918919 C2.26254381,0.00883918919 0,2.26714114 0,5.04426231 L0,8.36032057 L1.93691692,8.36032057 L1.93691692,5.12628619 C1.93691692,3.41585556 3.33167221,2.02297042 5.04444109,2.02297042 C6.75705136,2.02297042 8.14923716,3.41585556 8.14923716,5.12628619 L8.14923716,8.36032057 L6.79235801,8.36032057 C6.10462387,8.36032057 5.54714048,8.91696772 5.54714048,9.60392162 L5.54714048,18.6828461 C5.54714048,19.3710356 6.10462387,19.9278411 6.79235801,19.9278411 L19.7314985,19.9278411 C20.4193278,19.9278411 20.9754789,19.3710356 20.9754789,18.6828461 L20.9754789,9.60392162 C20.975352,8.91696772 20.4180906,8.36032057 19.7301344,8.36032057 Z M13.9612885,14.3799351 L13.9612885,16.3625431 C13.9612885,16.45103 13.8879471,16.5257671 13.7978565,16.5257671 L12.727364,16.5257671 C12.63629,16.5257671 12.5626631,16.45103 12.5626631,16.3625431 L12.5626631,14.3799351 C12.0598369,14.1231551 11.711497,13.6082011 11.711497,13.0046333 C11.711497,12.150717 12.4057976,11.4561911 13.2608021,11.4561911 C14.1171707,11.4561911 14.8114713,12.150717 14.8114713,13.0046333 C14.8125816,13.6082011 14.4642734,14.1231551 13.9612885,14.3799351 Z" id="Fill-1" fill="#FFFFFF" mask="url(#mask-2)"></path>
                </g>
            </g>
        </g>
    </g>
</svg>