<?xml version="1.0" encoding="UTF-8"?>
<svg width="51px" height="57px" viewBox="0 0 51 57" version="1.1" xmlns="http://www.w3.org/2000/svg" xmlns:xlink="http://www.w3.org/1999/xlink">
    <!-- Generator: Sketch 44.1 (41455) - http://www.bohemiancoding.com/sketch -->
    <title>锁 copy 25</title>
    <desc>Created with Sketch.</desc>
    <defs></defs>
    <g id="Page-1" stroke="none" stroke-width="1" fill="none" fill-rule="evenodd">
        <g id="设备监控1" transform="translate(-627.000000, -387.000000)">
            <g id="锁" transform="translate(626.930022, 387.025494)">
                <g stroke-width="1">
                    <ellipse id="Oval-Copy-2" fill="#F6A623" cx="25.5" cy="25.1688312" rx="25.5" ry="25.1688312"></ellipse>
                    <path d="M25.5,46.6558442 C13.4921641,46.6558442 3.75,37.0402016 3.75,25.1688312 C3.75,13.2974607 13.4921641,3.68181818 25.5,3.68181818 C37.5078359,3.68181818 47.25,13.2974607 47.25,25.1688312 C47.25,37.0402016 37.5078359,46.6558442 25.5,46.6558442 Z M25.5,43.6558442 C35.8596965,43.6558442 44.25,35.3745056 44.25,25.1688312 C44.25,14.9631567 35.8596965,6.68181818 25.5,6.68181818 C15.1403035,6.68181818 6.75,14.9631567 6.75,25.1688312 C6.75,35.3745056 15.1403035,43.6558442 25.5,43.6558442 Z" id="Oval-Copy-3" fill="#FFFFFF" fill-rule="nonzero"></path>
                    <polygon id="Triangle" fill="#F6A623" transform="translate(25.875000, 53.298701) scale(1, -1) translate(-25.875000, -53.298701) " points="25.875 49.5974026 31.5 57 20.25 57"></polygon>
                </g>
                <path d="M36.663437,29.9423274 C36.3861961,29.6123585 36.0562272,29.3219034 35.6996687,29.0709942 C36.0825267,27.962095 36.2937932,26.7739749 36.2937932,25.5331269 C36.2937932,19.566098 31.462092,14.7343967 25.4951598,14.7343967 C19.5281309,14.7343967 14.6963974,19.566098 14.6963974,25.5331269 C14.6963974,31.5000591 19.5281309,36.3317603 25.4951598,36.3317603 C26.7360078,36.3317603 27.9240957,36.1204939 29.0330271,35.737668 C29.2839363,36.0941943 29.5743914,36.4241632 29.9043603,36.7014041 C28.5446487,37.2426395 27.0528914,37.5330946 25.4951598,37.5330946 C18.8680319,37.5330946 13.4950953,32.160158 13.4950953,25.5331269 C13.4950953,18.905999 18.8680319,13.5330624 25.4951598,13.5330624 C32.1221587,13.5330624 37.4950953,18.905999 37.4950953,25.5331269 C37.4950953,27.0908585 37.2046724,28.5694015 36.663437,29.9423274 Z M32.9934919,29.4275205 C34.9868418,29.4275205 36.5974626,31.0380124 36.5974626,33.0314912 C36.5974626,35.0248089 34.9868418,36.6354297 32.9934919,36.6354297 C31.0000453,36.6354297 29.3895534,35.0248089 29.3895534,33.0314912 C29.3895534,31.0512266 31.0132595,29.4275205 32.9934919,29.4275205 Z M33.4423243,34.9852951 L33.4423243,34.3779564 C33.4423243,34.2987677 33.3763499,34.2327933 33.2970323,34.2327933 L32.703069,34.2327933 C32.6238803,34.2327933 32.5577769,34.2987677 32.5577769,34.3779564 L32.5577769,34.9720809 C32.5577769,35.0512696 32.6238803,35.117244 32.703069,35.117244 L33.2970323,35.117244 C33.3763499,35.1304582 33.4423243,35.0644838 33.4423243,34.9852951 Z M33.5874875,31.0909015 C33.5874875,30.9984986 33.521513,30.9323953 33.4423243,30.9323953 L32.5446916,30.9323953 C32.465374,30.9323953 32.3993996,31.0115839 32.3993996,31.0909015 L32.5314774,33.638701 C32.5314774,33.7178897 32.5974196,33.7839608 32.6766083,33.7839608 L33.2970323,33.7839608 C33.3763499,33.7839608 33.4423243,33.7178897 33.4423243,33.638701 L33.5874875,31.0909015 Z M26.1023696,17.8762885 L26.551202,26.2854998 L22.4587562,29.7971643 C22.3927817,29.8499245 22.3135931,29.8499245 22.2607362,29.7839501 L21.4027461,28.9258311 C21.349857,28.8730709 21.349857,28.780668 21.3894997,28.7145646 L24.4390208,25.2294575 L24.887821,17.8762885 C24.887821,17.7970998 24.9537955,17.7311254 25.0331131,17.7311254 L25.9439922,17.7311254 C26.0363951,17.7311254 26.1023696,17.7970998 26.1023696,17.8762885 Z" id="登录超时-(1)" fill="#FFFFFF"></path>
            </g>
        </g>
    </g>
</svg>