<?xml version="1.0" encoding="UTF-8"?>
<svg width="52px" height="58px" viewBox="0 0 52 58" version="1.1" xmlns="http://www.w3.org/2000/svg" xmlns:xlink="http://www.w3.org/1999/xlink">
    <!-- Generator: Sketch 44.1 (41455) - http://www.bohemiancoding.com/sketch -->
    <title>锁 copy 24@3x</title>
    <desc>Created with Sketch.</desc>
    <defs></defs>
    <g id="Page-1" stroke="none" stroke-width="1" fill="none" fill-rule="evenodd">
        <g id="桩位监控1" transform="translate(-575.000000, -285.000000)">
            <g id="锁" transform="translate(575.249369, 285.863365)">
                <g>
                    <ellipse id="Oval-Copy-2" fill="#9B9B9B" cx="25.5" cy="25.1688312" rx="25.5" ry="25.1688312"></ellipse>
                    <path d="M25.5,46.6558442 C13.4921641,46.6558442 3.75,37.0402016 3.75,25.1688312 C3.75,13.2974607 13.4921641,3.68181818 25.5,3.68181818 C37.5078359,3.68181818 47.25,13.2974607 47.25,25.1688312 C47.25,37.0402016 37.5078359,46.6558442 25.5,46.6558442 Z M25.5,43.6558442 C35.8596965,43.6558442 44.25,35.3745056 44.25,25.1688312 C44.25,14.9631567 35.8596965,6.68181818 25.5,6.68181818 C15.1403035,6.68181818 6.75,14.9631567 6.75,25.1688312 C6.75,35.3745056 15.1403035,43.6558442 25.5,43.6558442 Z" id="Oval-Copy-3" fill="#FFFFFF" fill-rule="nonzero"></path>
                    <polygon id="Triangle" fill="#9B9B9B" transform="translate(25.875000, 53.298701) scale(1, -1) translate(-25.875000, -53.298701) " points="25.875 49.5974026 31.5 57 20.25 57"></polygon>
                    <rect id="Rectangle-4" fill="#FFFFFF" x="16.7162718" y="21.8650296" width="17.5674564" height="11.1349704" rx="1"></rect>
                    <path d="M22.7051774,19.2546925 L22.7051774,25.1649983 C22.7051774,26.6870752 23.9576346,27.9239354 25.5,27.9239354 C27.0438231,27.9239354 28.2948226,26.6889621 28.2948226,25.1649983 L28.2948226,19.2546925 C28.2948226,17.7326156 27.0423654,16.4957554 25.5,16.4957554 C23.9561769,16.4957554 22.7051774,17.7307287 22.7051774,19.2546925 Z M21.1081359,19.2546925 C21.1081359,16.8604068 23.0739071,14.9194547 25.5,14.9194547 C27.9255596,14.9194547 29.8918641,16.8632064 29.8918641,19.2546925 L29.8918641,25.1649983 C29.8918641,27.559284 27.9260929,29.5002361 25.5,29.5002361 C23.0744404,29.5002361 21.1081359,27.5564844 21.1081359,25.1649983 L21.1081359,19.2546925 Z" id="Rectangle-3" fill="#FFFFFF" fill-rule="nonzero"></path>
                    <ellipse id="Oval-2" fill="#9B9B9B" cx="25.5" cy="28.4880069" rx="1.59704149" ry="1.57630069"></ellipse>
                    <rect id="Rectangle-5" fill="#9B9B9B" x="25.1007396" y="25.7294807" width="1" height="3.94075173" rx="0.5"></rect>
                </g>
            </g>
        </g>
    </g>
</svg>