<?xml version="1.0" encoding="UTF-8"?>
<svg width="143px" height="144px" viewBox="0 0 143 144" version="1.1" xmlns="http://www.w3.org/2000/svg" xmlns:xlink="http://www.w3.org/1999/xlink">
    <!-- Generator: Sketch 44.1 (41455) - http://www.bohemiancoding.com/sketch -->
    <title>Group 4 Copy 3</title>
    <desc>Created with Sketch.</desc>
    <defs></defs>
    <g id="Page-1" stroke="none" stroke-width="1" fill="none" fill-rule="evenodd">
        <g id="index1" transform="translate(-1124.000000, -169.000000)">
            <g id="Group-6" transform="translate(317.000000, 169.000000)">
                <g id="Group-4-Copy-3" transform="translate(877.000000, 72.000000) scale(-1, 1) translate(-877.000000, -72.000000) translate(807.000000, 0.000000)">
                    <ellipse id="Oval-2" stroke="#E12626" stroke-width="18" cx="65.9703947" cy="73.3126684" rx="59.4942434" ry="59.3449624"></ellipse>
                    <path d="M3.56353905,34.8473036 C16.492577,14.0204389 39.6072651,0.147105488 65.9703947,0.147105488 C106.480265,0.147105488 139.320004,32.9044438 139.320004,73.3126684 C139.320004,106.374588 117.33552,134.31464 87.1529651,143.381003 L86.8779206,142.503872 C116.68613,133.554224 138.398951,105.962735 138.398951,73.3126684 C138.398951,33.4118507 105.971582,1.06584704 65.9703947,1.06584704 C39.8814297,1.06584704 17.0141476,14.8249008 4.26364513,35.4652127 L3.56353905,34.8473036 Z" id="Combined-Shape" fill="#E12626" fill-rule="nonzero"></path>
                    <path d="M65.9703947,138.701228 L65.9703947,127.676329 C66.2490587,127.676329 66.5274564,127.674247 66.8055739,127.670088 L66.9712589,138.693748 C66.637918,138.698733 66.3042904,138.701228 65.9703947,138.701228 Z M70.9919066,138.511977 L70.1560713,127.518649 C70.4351924,127.497533 70.713945,127.474306 70.9923136,127.448971 L71.9965879,138.428264 C71.662115,138.458705 71.3272144,138.486611 70.9919066,138.511977 Z M75.994273,137.940791 L74.3167879,127.04361 C74.5917379,127.001497 74.8662167,126.957303 75.1402076,126.911033 L76.9851536,137.78125 C76.655421,137.836933 76.3251203,137.890116 75.994273,137.940791 Z M80.9524165,136.984374 L78.4353999,126.249163 C78.7063518,126.185953 78.9767167,126.12068 79.2464767,126.053353 L81.9292477,136.748549 C81.6043513,136.829637 81.2787333,136.908248 80.9524165,136.984374 Z M85.7954121,135.656103 L82.4561445,125.146413 C82.7214653,125.062535 82.9860776,124.97663 83.2499623,124.888707 L86.7516287,135.345675 C86.43376,135.451584 86.1150132,135.555064 85.7954121,135.656103 Z M90.5449083,133.949763 L86.399334,123.729747 C86.65812,123.625301 86.9160659,123.518869 87.1731515,123.410461 L91.4767732,133.565266 C91.1671864,133.695812 90.8565566,133.823982 90.5449083,133.949763 Z M95.1548902,131.878233 L90.2282302,122.009187 C90.478005,121.885124 90.7268098,121.759144 90.9746243,121.631261 L96.0532363,131.423368 C95.7549808,131.577281 95.4555238,131.728908 95.1548902,131.878233 Z M99.5347313,129.49049 L93.868149,120.024806 C94.1077291,119.882102 94.3462094,119.737561 94.583569,119.591199 L100.39525,128.968941 C100.109759,129.144982 99.8229114,129.318837 99.5347313,129.49049 Z M103.75852,126.749766 L97.3805791,117.745648 C97.608622,117.584927 97.8354331,117.422461 98.060992,117.258266 L104.576452,126.163878 C104.305312,126.361254 104.03266,126.556556 103.75852,126.749766 Z M107.762882,123.691393 L100.712288,115.201005 C100.927091,115.023523 101.140537,114.844403 101.352607,114.663664 L108.532297,123.045716 C108.277475,123.262892 108.020995,123.478124 107.762882,123.691393 Z M111.524279,120.333039 L103.842855,112.40588 C104.043536,112.212394 104.242736,112.017383 104.440435,111.820864 L112.242217,119.630196 C112.0047,119.866295 111.765379,120.100583 111.524279,120.333039 Z M115.016103,116.69844 L106.749241,109.38066 C106.934626,109.172281 107.11841,108.962496 107.300577,108.751322 L115.678551,115.94227 C115.45967,116.196005 115.238847,116.448069 115.016103,116.69844 Z M118.225448,112.799236 L109.419952,106.135886 C109.588359,105.914454 109.755065,105.691748 109.920054,105.467787 L118.826555,111.996203 C118.628239,112.265403 118.427864,112.533089 118.225448,112.799236 Z M121.06083,108.764858 L111.778431,102.780101 C111.92978,102.546534 112.079329,102.311817 112.227066,102.075971 L121.600366,107.918058 C121.422691,108.201699 121.242839,108.483974 121.06083,108.764858 Z M123.630441,104.443795 L113.914582,99.1879781 C114.047515,98.9434722 114.178561,98.6979465 114.307708,98.4514215 L124.103523,103.557431 C123.948104,103.854106 123.790405,104.149568 123.630441,104.443795 Z M125.861543,99.932983 L115.768157,95.4404835 C115.881757,95.1865344 115.993399,94.9316962 116.10307,94.675989 L126.264811,99.0124574 C126.132753,99.3203613 125.998325,99.6272114 125.861543,99.932983 Z M127.736933,95.2629277 L117.325407,91.5626814 C117.418847,91.3010834 117.510274,91.0387264 117.59968,90.7756298 L128.067304,94.3148948 C127.959612,94.6318073 127.849484,94.9478263 127.736933,95.2629277 Z M129.244945,90.4596968 L118.577323,87.5751546 C118.650169,87.307105 118.720958,87.0384202 118.789683,86.7691184 L129.50073,89.4888405 C129.417953,89.8132045 129.332688,90.136831 129.244945,90.4596968 Z M130.376381,85.5499367 L119.516852,83.4980829 C119.568674,83.2251889 119.618411,82.9517775 119.666057,82.6778659 L130.55598,84.5626363 C130.498631,84.8923287 130.438762,85.2214362 130.376381,85.5499367 Z M131.124084,80.5670909 L120.138294,79.3564288 C120.1689,79.0800955 120.197406,78.8033549 120.223807,78.526223 L131.226872,79.5691773 C131.195141,79.9022611 131.160876,80.2349059 131.124084,80.5670909 Z M131.485885,75.5452352 L120.439488,75.1749863 C120.448856,74.8968956 120.456125,74.6184999 120.461292,74.3398136 L131.512034,74.5436661 C131.505839,74.8778301 131.497121,75.2116929 131.485885,75.5452352 Z M131.465075,70.5303731 L120.422143,70.9921437 C120.410442,70.7137425 120.396637,70.4356622 120.38073,70.1579175 L131.415371,69.5291253 C131.434464,69.8625187 131.451034,70.1962745 131.465075,70.5303731 Z M131.062906,65.5258479 L120.087412,66.8261045 C120.054605,66.5505735 120.019708,66.275464 119.982727,66.0007919 L130.937008,64.5332988 C130.981487,64.8636544 131.023455,65.1945111 131.062906,65.5258479 Z M130.275503,60.5557411 L119.433059,62.6956005 C119.378922,62.4226665 119.322695,62.1502684 119.264388,61.878424 L130.072418,59.5718347 C130.142625,59.8991565 130.210323,60.2271328 130.275503,60.5557411 Z M129.112322,55.684949 L118.46722,58.6511134 C118.392361,58.3838023 118.315452,58.1171427 118.236504,57.8511532 L128.834411,54.7213457 C128.92951,55.0417492 129.022151,55.3629581 129.112322,55.684949 Z M127.566712,50.8915984 L117.184086,54.6717781 C117.088554,54.4107061 116.991014,54.150412 116.891475,53.8909155 L127.214278,49.951091 C127.334165,50.2636358 127.451647,50.5771463 127.566712,50.8915984 Z M125.649043,46.2223318 L115.591662,50.7944703 C115.476269,50.5419126 115.358935,50.2902593 115.23967,50.0395304 L125.22528,45.3134584 C125.368859,45.6153028 125.510118,45.9182687 125.649043,46.2223318 Z M123.404551,41.7695999 L113.726853,47.0950079 C113.592429,46.8519475 113.456137,46.6099205 113.31799,46.3689473 L122.912622,40.8960318 C123.07883,41.185952 123.242812,41.4771496 123.404551,41.7695999 Z M120.801555,37.4635156 L111.562819,43.5151235 C111.409775,43.2826482 111.254944,43.0513406 111.098341,42.8212213 L120.243063,36.6291629 C120.431358,36.9058519 120.617528,37.1839776 120.801555,37.4635156 Z M117.877696,33.3729598 L109.130612,40.1124252 C108.959932,39.8920112 108.787559,39.672897 108.613512,39.4551028 L117.256243,32.5829878 C117.46541,32.8447283 117.672567,33.1080602 117.877696,33.3729598 Z M114.639207,29.5068932 L106.435551,36.8951087 C106.248862,36.6888539 106.060598,36.4840178 105.870777,36.2806197 L113.960655,28.7686095 C114.188715,29.0129823 114.414906,29.2590845 114.639207,29.5068932 Z M111.116387,25.9023896 L103.503346,33.894917 C103.30129,33.7034188 103.097774,33.5134597 102.892819,33.3250578 L110.382876,25.2177395 C110.629119,25.4440939 110.87363,25.6723178 111.116387,25.9023896 Z M107.321081,22.5721162 L100.344634,31.123228 C100.128414,30.9477083 99.9108579,30.7738402 99.6919864,30.6016405 L106.536768,21.9453033 C106.7998,22.1522466 107.061246,22.361191 107.321081,22.5721162 Z M103.304385,19.5583596 L97.0028297,28.6158323 C96.7739768,28.4574105 96.5439176,28.3007396 96.3126724,28.145835 L102.4746,18.9932755 C102.752637,19.1795247 103.02924,19.3678922 103.304385,19.5583596 Z M99.1305238,16.8960392 L93.5321297,26.402009 C93.2919203,26.2612504 93.0506324,26.1223331 92.8082863,25.9852707 L98.2597091,16.3946853 C98.5512712,16.5595826 98.841551,16.7267061 99.1305238,16.8960392 Z M94.6869094,14.5169792 L89.839443,24.4249676 C89.5888379,24.302974 89.3372832,24.1829045 89.0847993,24.0647711 L93.7784672,14.0833739 C94.0824169,14.2255873 94.3852392,14.3701273 94.6869094,14.5169792 Z M90.0748074,12.487958 L86.0089887,22.7398048 C85.749871,22.6375554 85.4899345,22.5372929 85.2291989,22.4390275 L89.1356372,12.1257053 C89.4496697,12.2440571 89.7627345,12.3648122 90.0748074,12.487958 Z M85.3143033,10.8191794 L82.0567475,21.3543541 C81.7907004,21.2725026 81.5239619,21.1926851 81.2565509,21.1149101 L84.3504006,10.5307493 C84.672518,10.6244353 84.9938267,10.7205822 85.3143033,10.8191794 Z M80.4377511,9.52308882 C80.1106716,9.44956833 79.7829157,9.37854138 79.454506,9.31001673 L77.1914882,20.101347 C77.4642282,20.1582558 77.7364155,20.2172407 78.0080325,20.2782944 L80.4377511,9.52308882 Z M75.4723339,8.60674989 C75.1407389,8.55868693 74.8086182,8.51314016 74.4759934,8.47011652 L73.0546849,19.4034782 C73.3312269,19.4392478 73.6073291,19.4771122 73.882975,19.5170656 L75.4723339,8.60674989 Z M70.4519243,8.07473011 C70.1179153,8.05220789 69.7835242,8.03220362 69.4487709,8.01472259 L68.8709349,19.0245441 C69.1497875,19.039106 69.4283049,19.0557677 69.7064722,19.0745245 L70.4519243,8.07473011 Z M65.4117508,7.92643829 C65.0758041,7.92924037 64.7401433,7.93457001 64.4047875,7.94242276 L64.6641774,18.9642849 C64.9438847,18.9577352 65.2238863,18.9532893 65.5041681,18.9509515 L65.4117508,7.92643829 Z M60.390607,8.15797127 C60.0558465,8.18614967 59.7215079,8.21686348 59.3876121,8.25010674 L60.4853451,19.2204947 C60.7631727,19.1928337 61.0413952,19.167275 61.3199969,19.1438237 L60.390607,8.15797127 Z M55.3941926,8.77155494 C55.0623698,8.82527875 54.7311149,8.88153009 54.4004498,8.94030124 L56.3393054,19.7942439 C56.614037,19.7454141 56.8892734,19.6986755 57.1649974,19.6540343 L55.3941926,8.77155494 Z M50.4382106,9.77182399 C50.1115027,9.85103159 49.7855154,9.93273688 49.4602719,10.0169303 L52.236616,20.6883377 C52.5066518,20.6184355 52.7773102,20.5505979 53.0485727,20.4848325 L50.4382106,9.77182399 Z M45.6120207,11.1403731 L49.0418724,21.6209966 C48.7766502,21.7073572 48.5121538,21.7957492 48.2484025,21.8861632 L44.6562345,11.4597835 C44.9739379,11.3508747 45.2925413,11.2444008 45.6120207,11.1403731 Z M40.8756669,12.8881414 L45.1094798,23.0721023 C44.8524498,23.1784227 44.5962688,23.2867094 44.3409568,23.3969514 L39.950225,13.2793188 C40.2576599,13.1465705 40.5661487,13.0161735 40.8756669,12.8881414 Z M36.2813159,15.0004524 L41.2933358,24.8266394 C41.0445615,24.9528951 40.7967724,25.0810598 40.5499891,25.2111208 L35.3867005,15.4631743 C35.683694,15.3066514 35.9819074,15.1524055 36.2813159,15.0004524 Z M31.9245471,17.4244581 L37.672332,26.8413016 C37.4341593,26.9859471 37.1970996,27.132416 36.9611733,27.2806938 L31.0692139,17.9529289 C31.352961,17.774596 31.6380803,17.5984333 31.9245471,17.4244581 Z M27.7259723,20.2000803 L34.1806393,29.1496323 C33.9544099,29.3119775 33.7294218,29.4760497 33.5056955,29.6418327 L26.9146597,20.791727 C27.1835821,20.5924533 27.4540277,20.3952314 27.7259723,20.2000803 Z M23.7440449,23.2955703 L30.8674388,31.7252781 C30.6541557,31.9046064 30.4422435,32.0855594 30.2317219,32.2681197 L22.9801836,23.9478349 C23.2331376,23.728478 23.4877658,23.5110495 23.7440449,23.2955703 Z M20.0163747,26.6813721 L27.7648794,34.5433047 C27.5661703,34.7381654 27.3689511,34.9345338 27.1732406,35.1323913 L19.3055762,27.3891043 C19.540704,27.1513971 19.7776442,26.915479 20.0163747,26.6813721 Z M16.5513747,30.350153 L24.8808494,37.5969439 C24.6974404,37.806698 24.5156411,38.0178427 24.3354694,38.2303581 L15.8960637,31.1112431 C16.1125553,30.8558879 16.3309992,30.6021835 16.5513747,30.350153 Z M13.3751437,34.2774316 L22.237798,40.8649522 C22.071069,41.0881402 21.9060573,41.3125922 21.7427792,41.5382879 L12.7801148,35.0868035 C12.9763854,34.815503 13.1747348,34.5457044 13.3751437,34.2774316 Z M10.57716,38.3321852 L19.9105683,44.2374787 C19.7611862,44.4723961 19.6136145,44.7084497 19.4678677,44.9456188 L10.0447232,39.1838668 C10.2200186,38.8986141 10.3975034,38.6147121 10.57716,38.3321852 Z" id="Oval-2-Copy" fill="#FFFFFF" fill-rule="nonzero" opacity="0.645776721"></path>
                    <g id="Group-5" transform="translate(0.000000, 30.476343)">
                        <ellipse id="Oval-4" fill="#E12626" cx="4.60526316" cy="4.59370778" rx="2.76315789" ry="2.75622467"></ellipse>
                        <polygon id="Rectangle-9" fill="#FFFFFF" transform="translate(13.815789, 10.565528) rotate(32.000000) translate(-13.815789, -10.565528) " points="6.62143234 9.79292542 21.0101466 9.50064725 21.0101466 11.3381304 6.62143234 11.6304085"></polygon>
                        <path d="M4.60526316,9.18741556 C2.06184655,9.18741556 0,7.13074253 0,4.59370778 C0,2.05667303 2.06184655,0 4.60526316,0 C7.14867977,0 9.21052632,2.05667303 9.21052632,4.59370778 C9.21052632,7.13074253 7.14867977,9.18741556 4.60526316,9.18741556 Z M4.60526316,7.34993245 C6.13131312,7.34993245 7.36842105,6.11592863 7.36842105,4.59370778 C7.36842105,3.07148693 6.13131312,1.83748311 4.60526316,1.83748311 C3.07921319,1.83748311 1.84210526,3.07148693 1.84210526,4.59370778 C1.84210526,6.11592863 3.07921319,7.34993245 4.60526316,7.34993245 Z" id="Oval-3" fill="#FFFFFF" fill-rule="nonzero"></path>
                    </g>
                    <g id="Group-7" transform="translate(31.357049, 32.313570)"></g>
                </g>
            </g>
        </g>
    </g>
</svg>