<?xml version="1.0" encoding="UTF-8"?>
<svg width="130px" height="38px" viewBox="0 0 130 38" version="1.1" xmlns="http://www.w3.org/2000/svg" xmlns:xlink="http://www.w3.org/1999/xlink">
    <!-- Generator: Sketch 44.1 (41455) - http://www.bohemiancoding.com/sketch -->
    <title>Group 13</title>
    <desc>Created with Sketch.</desc>
    <defs>
        <path d="M74,9.29545455 L74,0 L0,0 L0,28 L74,28 L74,18.7045455 L80.2727273,14 L74,9.29545455 Z" id="path-1"></path>
    </defs>
    <g id="Page-1" stroke="none" stroke-width="1" fill="none" fill-rule="evenodd">
        <g id="Login1" transform="translate(-1088.000000, -258.000000)">
            <g id="Group-9-Copy">
                <g id="Group-8" transform="translate(826.000000, 236.000000)">
                    <g id="Group-13" transform="translate(262.000000, 22.000000)">
                        <g id="Group-12" opacity="0.748980978">
                            <g id="Combined-Shape">
                                <use fill="#AED3FF" fill-rule="evenodd" xlink:href="#path-1"></use>
                                <path stroke="#1582DC" stroke-width="1" d="M73.5,0.5 L0.5,0.5 L0.5,27.5 L73.5,27.5 L73.5,18.4545455 L79.4393939,14 L73.5,9.54545455 L73.5,0.5 Z"></path>
                            </g>
                        </g>
                        <g id="二维码" transform="translate(92.000000, 0.000000)" fill="#898989">
                            <polyline id="Fill-1" points="37.9629268 38 37.9629268 35.0800244 35.0429512 35.0800244 37.9629268 38"></polyline>
                            <polyline id="Fill-2" points="10.2208878 2.95704878 10.2208878 10.2573122 13.1408634 13.1772878 13.1408634 0.0370731707 0 0.0370731707 2.91997561 2.95704878 10.2208878 2.95704878"></polyline>
                            <polyline id="Fill-3" points="35.0429512 23.3988244 24.8220634 23.3988244 24.8220634 24.8591366 27.742039 27.7791122 27.742039 26.3188 30.6620146 26.3188 30.6620146 29.2387756 29.2017024 29.2387756 35.0423024 35.0793756 35.0423024 32.1594 37.9629268 32.1594 37.9629268 26.3194488 35.0429512 26.3194488 35.0429512 23.3988244"></polyline>
                            <polyline id="Fill-4" points="8.76057561 8.79764878 8.76057561 4.41736098 4.3802878 4.41736098 8.76057561 8.79764878"></polyline>
                            <polygon id="Fill-5" points="16.0614878 2.95704878 18.9814634 2.95704878 18.9814634 0.0370731707 16.0614878 0.0370731707"></polygon>
                            <path d="M24.8220634,13.1779366 L37.9629268,13.1779366 L37.9629268,0.0370731707 L24.8220634,0.0370731707 L24.8220634,13.1779366 Z M27.742039,10.257961 L35.0429512,10.257961 L35.0429512,2.95704878 L27.742039,2.95704878 L27.742039,10.257961 Z" id="Fill-6"></path>
                            <polygon id="Fill-7" points="29.2023512 8.79764878 33.582639 8.79764878 33.582639 4.41736098 29.2023512 4.41736098"></polygon>
                            <polyline id="Fill-8" points="21.901439 16.098561 21.901439 11.7182732 18.9814634 11.7182732 18.9814634 16.098561 16.0614878 16.098561 18.9814634 19.0185366 21.901439 19.0185366 21.901439 21.9385122 26.2817268 21.9385122 26.2817268 19.0185366 29.2017024 19.0185366 29.2017024 16.098561 21.901439 16.098561"></polyline>
                            <polyline id="Fill-9" points="21.901439 8.79764878 21.901439 2.95704878 18.9814634 2.95704878 18.9814634 5.87702439 16.0614878 5.87702439 16.0614878 11.717022 18.9814634 11.717022 18.9814634 8.797 21.901439 8.797 21.901439 8.79764878"></polyline>
                            <polyline id="Fill-10" points="35.0429512 16.098561 32.1229756 16.098561 32.1229756 19.0185366 29.203 19.0185366 29.203 21.9385122 37.9629268 21.9385122 37.9629268 19.0185366 35.0429512 19.0185366 35.0429512 16.098561"></polyline>
                        </g>
                    </g>
                </g>
            </g>
        </g>
    </g>
</svg>