<?xml version="1.0" encoding="UTF-8"?>
<svg width="133px" height="38px" viewBox="0 0 133 38" version="1.1" xmlns="http://www.w3.org/2000/svg" xmlns:xlink="http://www.w3.org/1999/xlink">
    <!-- Generator: Sketch 44.1 (41455) - http://www.bohemiancoding.com/sketch -->
    <title>Group 2</title>
    <desc>Created with Sketch.</desc>
    <defs>
        <path d="M74,9.29545455 L74,0 L0,0 L0,28 L74,28 L74,18.7045455 L80.2727273,14 L74,9.29545455 Z" id="path-1"></path>
    </defs>
    <g id="Page-1" stroke="none" stroke-width="1" fill="none" fill-rule="evenodd">
        <g id="Login2" transform="translate(-1088.000000, -257.000000)">
            <g id="Group-9-Copy">
                <g id="Group-8" transform="translate(826.000000, 236.000000)">
                    <g id="Group-2" transform="translate(262.000000, 21.000000)">
                        <g id="Group-12" transform="translate(0.000000, 1.000000)" opacity="0.748980978">
                            <g id="Combined-Shape">
                                <use fill="#AED3FF" fill-rule="evenodd" xlink:href="#path-1"></use>
                                <path stroke="#1582DC" stroke-width="1" d="M73.5,0.5 L0.5,0.5 L0.5,27.5 L73.5,27.5 L73.5,18.4545455 L79.4393939,14 L73.5,9.54545455 L73.5,0.5 Z"></path>
                            </g>
                        </g>
                        <g id="电脑-(1)" transform="translate(95.000000, 0.000000)" fill="#898989">
                            <polyline id="Fill-1" points="30.2830396 7.08748469 7.69444189 7.08748469 7.69444189 18.516227 12.063083 22.8793444 30.2830396 22.8793444 30.2830396 7.08748469"></polyline>
                            <path d="M34.0552797,0.0423137755 L3.92428863,0.0423137755 C1.76683014,0.0423137755 0.0177624521,1.79307653 0.0177624521,3.95306633 L0.0177624521,10.9022194 L2.71726692,13.5982806 L2.71726692,2.81675 L35.3206845,2.81675 L35.3206845,27.2001964 L16.3366028,27.2001964 L27.1026871,37.9525485 L31.1808685,37.9525485 C31.9241737,37.9525485 32.5266897,37.3507526 32.5266897,36.6084439 C32.5266897,35.8661837 31.9241252,35.2643878 31.1808685,35.2643878 L24.4232261,35.2643878 L24.4232261,29.8666913 L34.0552797,29.8666913 C36.2126897,29.8666913 37.9617573,28.1158801 37.9617573,25.9560357 L37.9617573,3.95321173 C37.9617088,1.79346429 36.2125926,0.0424107143 34.0551826,0.0424107143 L34.0552797,0.0423137755" id="Fill-2"></path>
                        </g>
                    </g>
                </g>
            </g>
        </g>
    </g>
</svg>