<?xml version="1.0" encoding="UTF-8"?>
<svg width="128px" height="33px" viewBox="0 0 128 33" version="1.1" xmlns="http://www.w3.org/2000/svg" xmlns:xlink="http://www.w3.org/1999/xlink">
    <!-- Generator: Sketch 44.1 (41455) - http://www.bohemiancoding.com/sketch -->
    <title>Group</title>
    <desc>Created with Sketch.</desc>
    <defs></defs>
    <g id="Page-1" stroke="none" stroke-width="1" fill="none" fill-rule="evenodd">
        <g id="Login1" transform="translate(-21.000000, -15.000000)" fill="#FFFFFF">
            <g id="Group-9-Copy">
                <g id="Group" transform="translate(20.812500, 15.187500)">
                    <g id="logo" transform="translate(0.479588, 0.243470)">
                        <path d="M5.61645694,14.8150496 C5.60226094,15.1116988 5.59507593,15.4104739 5.59507593,15.7111812 C5.59507593,24.7222994 12.3843036,32.085157 20.8383667,32.085157 C29.0919782,32.085157 35.8414905,24.6798979 35.8414905,15.7111812 C35.8414905,15.3563433 35.8314511,15.0040928 35.8116694,14.6547603 L34.1705714,16.0885651 C33.9862364,24.0095652 28.0174948,30.4354189 20.8383667,30.4354189 C13.4654537,30.4354189 7.46483889,24.0612082 7.2666622,16.1168903 L5.61645694,14.8150496 Z" id="Combined-Shape" fill-rule="nonzero"></path>
                        <path d="M6.83466795,9.61814702 C9.12320744,4.05696802 14.5441736,0.158113904 20.9140824,0.158113904 C27.0220751,0.158113904 32.3029334,3.94124255 34.6383097,9.33982295 L33.2290566,10.282139 C31.2130379,5.31161157 26.4362178,1.80785205 20.9140824,1.80785205 C15.1087549,1.80785205 10.1841291,5.45066226 8.23349713,10.6070917 L6.83466795,9.61814702 Z" id="Combined-Shape" fill-rule="nonzero"></path>
                        <path d="M0.00672031889,6.92665033 C0.00672031889,6.92665033 16.0114773,22.1919504 20.8383667,22.1346868 C25.8147503,22.0771094 41.6700132,6.92665033 41.6700132,6.92665033 C41.6700132,6.92665033 27.5599276,17.7476103 20.8383667,17.791658 C14.2663,17.9033393 0.00672031889,6.92665033 0.00672031889,6.92665033 Z" id="Path-2"></path>
                        <path d="M46.3395507,2.42932593 L43.1428058,5.81497933 C43.1428058,5.81497933 43.5327983,5.26173131 43.466795,4.88145822 C43.4007917,4.50118512 42.0887221,4.37712524 42.0887221,4.37712524 L46.3395507,2.42932593 Z" id="Path-4" transform="translate(44.214136, 4.122153) rotate(5.000000) translate(-44.214136, -4.122153) "></path>
                    </g>
                    <path d="M50.2875,11.2280042 L55.0862114,11.2280042 C55.7191996,11.2280042 56.3008558,11.2992927 56.8311973,11.441872 C57.3615389,11.5844512 57.8163141,11.7840592 58.1955369,12.0407018 C58.5747596,12.2973444 58.8698645,12.605311 59.0808606,12.9646107 C59.2918567,13.3239104 59.3973532,13.7202748 59.3973532,14.1537157 C59.3973532,14.4787964 59.3631381,14.7696537 59.2947069,15.0262963 C59.2262758,15.2829389 59.1093743,15.5210427 58.943999,15.7406148 C58.7786237,15.9601868 58.5562257,16.1683494 58.2767985,16.3651087 C57.9973712,16.5618681 57.6466667,16.7600503 57.2246746,16.9596612 L57.2246746,16.9938801 C57.6466667,17.0623181 58.0301606,17.1778056 58.3751678,17.3403459 C58.7201749,17.5028863 59.0138542,17.7096231 59.2562146,17.9605625 C59.498575,18.211502 59.6853322,18.5009335 59.8164919,18.8288658 C59.9476517,19.1567981 60.0132306,19.5203697 60.0132306,19.9195916 C60.0132306,20.370142 59.9148622,20.7921703 59.7181226,21.185689 C59.521383,21.5792077 59.24196,21.9213928 58.8798451,22.2122544 C58.5177302,22.5031161 58.0800624,22.7312395 57.5668287,22.8966314 C57.0535949,23.0620233 56.4804925,23.144718 55.8475043,23.144718 L50.2875,23.144718 L50.2875,11.2280042 Z M52.2891015,16.5918086 L54.8381497,16.5918086 C55.2373314,16.5918086 55.5937384,16.5347778 55.9073812,16.4207144 C56.2210241,16.306651 56.4847652,16.1483904 56.6986126,15.9459278 C56.91246,15.7434653 57.0749816,15.5053615 57.1861822,15.2316094 C57.2973829,14.9578572 57.3529824,14.6584453 57.3529824,14.3333646 C57.3529824,13.9854713 57.2874035,13.6689501 57.1562437,13.3837916 C57.025084,13.0986331 56.8197936,12.8548262 56.5403663,12.6523637 C56.2609391,12.4499012 55.9073834,12.2944921 55.4796886,12.1861319 C55.0519938,12.0777717 54.5387678,12.0235924 53.9399951,12.0235924 L52.2891015,12.0235924 L52.2891015,16.5918086 Z M52.2891015,22.2721374 L54.4532263,22.2721374 C55.0348912,22.2721374 55.5395634,22.2165323 55.9672582,22.1053205 C56.394953,21.9941087 56.7485087,21.8386997 57.027936,21.6390887 C57.3073632,21.4394778 57.5140792,21.1985225 57.6480903,20.9162155 C57.7821013,20.6339086 57.8491058,20.3245163 57.8491058,19.9880293 C57.8491058,19.6116201 57.7892294,19.2608804 57.6694749,18.9357997 C57.5497204,18.610719 57.3529837,18.3298421 57.0792591,18.0931606 C56.8055344,17.856479 56.4491274,17.669703 56.0100275,17.5328269 C55.5709275,17.3959509 55.0320402,17.3275138 54.3933493,17.3275138 L52.2891015,17.3275138 L52.2891015,22.2721374 Z M64.7569529,23.3414764 C64.1353698,23.3414764 63.552288,23.2245632 63.00769,22.9907332 C62.463092,22.7569033 61.9869323,22.4389563 61.5791966,22.0368828 C61.1714609,21.6348093 60.849269,21.1643049 60.6126112,20.6253553 C60.3759535,20.0864058 60.2576264,19.5089685 60.2576264,18.8930261 C60.2576264,18.1573172 60.3659741,17.4757987 60.5826728,16.84845 C60.7993714,16.2211013 61.1044558,15.6793083 61.497935,15.2230547 C61.8914142,14.7668011 62.3661483,14.4103583 62.9221515,14.1537157 C63.4781547,13.897073 64.0954516,13.7687536 64.7740606,13.7687536 C65.3785359,13.7687536 65.9316795,13.8742607 66.433508,14.085278 C66.9353366,14.2962953 67.3658762,14.5800237 67.7251398,14.9364718 C68.0844034,15.2929199 68.3638265,15.7049678 68.5634174,16.1726277 C68.7630083,16.6402876 68.8628022,17.1307529 68.8628022,17.6440382 L62.0111662,17.6440382 C62.0111662,18.2599805 62.0910013,18.8317147 62.250674,19.359258 C62.4103468,19.8868012 62.6327447,20.3416221 62.9178746,20.7237345 C63.2030044,21.1058469 63.5451551,21.4052588 63.9443369,21.6219793 C64.3435187,21.8386997 64.7797608,21.9470583 65.2530764,21.9470583 C65.6522581,21.9470583 66.0343264,21.8828986 66.3992926,21.7545773 C66.7642588,21.626256 67.0950045,21.458015 67.3915395,21.2498493 C67.6880746,21.0416836 67.9404107,20.8021541 68.1485555,20.5312535 C68.3567003,20.2603529 68.50354,19.9823276 68.5890789,19.6971691 L69.1108639,19.9281463 C68.9797042,20.4015094 68.7672857,20.8449242 68.4736019,21.258404 C68.1799182,21.6718838 67.8377675,22.0326039 67.4471396,22.3405751 C67.0565117,22.6485463 66.6288233,22.8923531 66.1640617,23.072003 C65.6993,23.2516528 65.2302684,23.3414764 64.7569529,23.3414764 Z M66.5789235,16.908333 C66.5789235,16.5604396 66.5176215,16.2367896 66.3950157,15.9373731 C66.2724099,15.6379567 66.1041858,15.3784664 65.8903384,15.1588943 C65.676491,14.9393223 65.4255805,14.766804 65.1375993,14.6413343 C64.8496182,14.5158645 64.5402569,14.4531306 64.2095063,14.4531306 C63.9357817,14.4531306 63.6720405,14.5158645 63.4182749,14.6413343 C63.1645094,14.766804 62.9392602,14.9378965 62.7425206,15.154617 C62.545781,15.3713374 62.3832594,15.629402 62.254951,15.9288184 C62.1266425,16.2282348 62.048233,16.5518849 62.01972,16.8997782 L66.5789235,16.908333 Z M72.9307702,22.7084277 C73.1816844,22.7084277 73.4126362,22.6699319 73.6236323,22.5929391 C73.8346283,22.5159463 74.0156831,22.4147166 74.1668019,22.2892468 C74.3179207,22.1637771 74.4362478,22.0183484 74.5217868,21.8529565 C74.6073257,21.6875646 74.6500946,21.5193236 74.6500946,21.3482285 C74.6500946,21.0687732 74.5802388,20.8249663 74.4405252,20.6168006 C74.3008116,20.4086349 74.1154799,20.2204331 73.8845248,20.0521896 C73.6535696,19.8839461 73.3898284,19.7313886 73.0932934,19.5945125 C72.7967583,19.4576365 72.4959509,19.3164851 72.1908619,19.1710543 C71.885773,19.0256235 71.5849655,18.8687886 71.2884305,18.7005451 C70.9918954,18.5323016 70.7281543,18.3383967 70.4971991,18.1188247 C70.2662439,17.8992527 70.0809123,17.6454654 69.9411987,17.3574553 C69.801485,17.0694453 69.7316293,16.728686 69.7316293,16.3351672 C69.7316293,15.9644612 69.8100388,15.6222761 69.9668602,15.3086018 C70.1236816,14.9949275 70.3403771,14.724031 70.616953,14.4959042 C70.893529,14.2677774 71.2242746,14.089556 71.6091999,13.9612347 C71.9941252,13.8329133 72.4146855,13.7687536 72.8708932,13.7687536 C73.1731309,13.7687536 73.4582564,13.7901402 73.7262785,13.832914 C73.9943005,13.8756877 74.2551904,13.9583825 74.508956,14.0810006 C74.7627216,14.2036188 75.0164833,14.3761371 75.2702489,14.5985607 C75.5240145,14.8209843 75.7877556,15.1118416 76.0614803,15.4711413 L75.3942798,16.0699712 C75.0464214,15.4996542 74.6572249,15.0747744 74.2266789,14.7953191 C73.7961328,14.5158638 73.335655,14.3761382 72.8452317,14.3761382 C72.5886148,14.3761382 72.3519606,14.4089309 72.1352619,14.4745174 C71.9185632,14.5401038 71.7332316,14.6285016 71.5792614,14.7397134 C71.4252913,14.8509253 71.3055386,14.9806704 71.2199996,15.1289528 C71.1344607,15.2772353 71.0916918,15.4340701 71.0916918,15.599462 C71.0916918,15.8732142 71.1686757,16.1127437 71.3226459,16.3180578 C71.476616,16.5233719 71.6790551,16.7087222 71.9299694,16.8741141 C72.1808837,17.039506 72.4660093,17.1920635 72.7853547,17.3317912 C73.1047001,17.4715189 73.4325945,17.614096 73.7690477,17.7595268 C74.105501,17.9049576 74.4333954,18.0603667 74.7527408,18.2257586 C75.0720862,18.3911505 75.3572118,18.5836296 75.6081261,18.8032017 C75.8590404,19.0227737 76.0614795,19.276561 76.2154496,19.564571 C76.3694197,19.8525811 76.4464037,20.1876373 76.4464037,20.5697497 C76.4464037,20.9575653 76.3736966,21.3211369 76.2282804,21.6604755 C76.0828642,21.9998141 75.8647431,22.2935229 75.5739107,22.5416108 C75.2830782,22.7896987 74.9166919,22.9850294 74.4747406,23.1276086 C74.0327893,23.2701879 73.5181377,23.3414764 72.9307702,23.3414764 C72.6627481,23.3414764 72.3876019,23.3200898 72.1053234,23.2773161 C71.8230448,23.2345423 71.5379193,23.1518476 71.2499381,23.0292294 C70.961957,22.9066113 70.6739801,22.734093 70.385999,22.5116693 C70.0980178,22.2892457 69.8171692,21.9983884 69.5434445,21.6390887 L70.2876297,20.9632665 C70.510031,21.2769408 70.7238752,21.54356 70.9291686,21.763132 C71.1344621,21.9827041 71.3411782,22.1623512 71.549323,22.3020789 C71.7574678,22.4418066 71.9741632,22.5444621 72.1994158,22.6100485 C72.4246684,22.675635 72.6684507,22.7084277 72.9307702,22.7084277 Z M82.35345,21.9727225 C82.1082383,22.3947571 81.7831951,22.7283875 81.3783108,22.9736238 C80.9734264,23.2188601 80.4744566,23.3414764 79.8813865,23.3414764 C79.5734463,23.3414764 79.3068539,23.2901487 79.0816013,23.1874916 C78.8563487,23.0848345 78.6695915,22.9394059 78.5213239,22.7512013 C78.3730564,22.5629967 78.2632831,22.3377248 78.1920006,22.075379 C78.1207181,21.8130332 78.0850775,21.5221759 78.0850775,21.2027984 L78.0850775,14.7268814 L76.4940608,14.7268814 L76.4940608,14.2734816 C77.0072946,14.2734816 77.4292804,14.1808065 77.760031,13.9954535 C78.0907817,13.8101005 78.361651,13.5591648 78.5726471,13.2426388 C78.7836431,12.9261129 78.949016,12.5596897 79.0687705,12.1433583 C79.1885251,11.7270269 79.2940215,11.2850379 79.3852631,10.817378 L79.9070481,10.817378 L79.9070481,13.9569573 L81.9685266,13.9569573 L81.9685266,14.7268814 L79.9070481,14.7268814 L79.9070481,21.2027984 C79.9070481,21.3396745 79.9327094,21.4679939 79.9840328,21.5877604 C80.0353561,21.707527 80.1052119,21.8116083 80.1936022,21.9000074 C80.2819924,21.9884066 80.3874889,22.0582693 80.5100947,22.1095979 C80.6327005,22.1609264 80.7624327,22.1865903 80.899295,22.1865903 C81.1045885,22.1865903 81.2913457,22.1366883 81.4595724,22.0368828 C81.627799,21.9370774 81.7746386,21.8130353 81.9000958,21.6647528 L82.35345,21.9727225 Z M87.81203,13.9569573 L91.062494,20.9119382 L94.1760964,13.9569573 L95.014374,13.9569573 L90.8743093,23.2473746 L90.2327703,23.2473746 L85.895967,13.9569573 L87.81203,13.9569573 Z M96.2766783,9.25186567 C96.4192432,9.25186567 96.5546779,9.27610378 96.6829863,9.32458072 C96.8112947,9.37305767 96.9224937,9.43864314 97.0165865,9.5213391 C97.1106794,9.60403506 97.1862377,9.7009875 97.2432636,9.81219931 C97.3002896,9.92341112 97.3288022,10.0417501 97.3288022,10.1672199 C97.3288022,10.2926896 97.3002896,10.4110286 97.2432636,10.5222404 C97.1862377,10.6334522 97.1106794,10.7304047 97.0165865,10.8131006 C96.9224937,10.8957966 96.8112947,10.9613821 96.6829863,11.009859 C96.5546779,11.0583359 96.4192432,11.082574 96.2766783,11.082574 C96.1341134,11.082574 96.0001043,11.0583359 95.8746472,11.009859 C95.7491901,10.9613821 95.6394167,10.8957966 95.5453239,10.8131006 C95.451231,10.7304047 95.3756728,10.6334522 95.3186468,10.5222404 C95.2616208,10.4110286 95.2331083,10.2926896 95.2331083,10.1672199 C95.2331083,10.0417501 95.2616208,9.92341112 95.3186468,9.81219931 C95.3756728,9.7009875 95.451231,9.60403506 95.5453239,9.5213391 C95.6394167,9.43864314 95.7491901,9.37305767 95.8746472,9.32458072 C96.0001043,9.27610378 96.1341134,9.25186567 96.2766783,9.25186567 Z M95.3870776,14.2905911 L96.6701555,13.7687536 L97.2004944,13.7687536 L97.2004944,23.144718 L95.3870776,23.144718 L95.3870776,14.2905911 Z M101.533632,22.7084277 C101.784546,22.7084277 102.015498,22.6699319 102.226494,22.5929391 C102.43749,22.5159463 102.618545,22.4147166 102.769664,22.2892468 C102.920782,22.1637771 103.039109,22.0183484 103.124648,21.8529565 C103.210187,21.6875646 103.252956,21.5193236 103.252956,21.3482285 C103.252956,21.0687732 103.1831,20.8249663 103.043387,20.6168006 C102.903673,20.4086349 102.718342,20.2204331 102.487386,20.0521896 C102.256431,19.8839461 101.99269,19.7313886 101.696155,19.5945125 C101.39962,19.4576365 101.098812,19.3164851 100.793724,19.1710543 C100.488635,19.0256235 100.187827,18.8687886 99.8912921,18.7005451 C99.594757,18.5323016 99.3310159,18.3383967 99.1000607,18.1188247 C98.8691055,17.8992527 98.6837739,17.6454654 98.5440603,17.3574553 C98.4043466,17.0694453 98.3344909,16.728686 98.3344909,16.3351672 C98.3344909,15.9644612 98.4129004,15.6222761 98.5697218,15.3086018 C98.7265432,14.9949275 98.9432387,14.724031 99.2198146,14.4959042 C99.4963906,14.2677774 99.8271362,14.089556 100.212062,13.9612347 C100.596987,13.8329133 101.017547,13.7687536 101.473755,13.7687536 C101.775992,13.7687536 102.061118,13.7901402 102.32914,13.832914 C102.597162,13.8756877 102.858052,13.9583825 103.111818,14.0810006 C103.365583,14.2036188 103.619345,14.3761371 103.873111,14.5985607 C104.126876,14.8209843 104.390617,15.1118416 104.664342,15.4711413 L103.997141,16.0699712 C103.649283,15.4996542 103.260087,15.0747744 102.82954,14.7953191 C102.398994,14.5158638 101.938517,14.3761382 101.448093,14.3761382 C101.191476,14.3761382 100.954822,14.4089309 100.738123,14.4745174 C100.521425,14.5401038 100.336093,14.6285016 100.182123,14.7397134 C100.028153,14.8509253 99.9084002,14.9806704 99.8228612,15.1289528 C99.7373223,15.2772353 99.6945535,15.4340701 99.6945535,15.599462 C99.6945535,15.8732142 99.7715374,16.1127437 99.9255075,16.3180578 C100.079478,16.5233719 100.281917,16.7087222 100.532831,16.8741141 C100.783745,17.039506 101.068871,17.1920635 101.388216,17.3317912 C101.707562,17.4715189 102.035456,17.614096 102.371909,17.7595268 C102.708363,17.9049576 103.036257,18.0603667 103.355602,18.2257586 C103.674948,18.3911505 103.960073,18.5836296 104.210988,18.8032017 C104.461902,19.0227737 104.664341,19.276561 104.818311,19.564571 C104.972281,19.8525811 105.049265,20.1876373 105.049265,20.5697497 C105.049265,20.9575653 104.976558,21.3211369 104.831142,21.6604755 C104.685726,21.9998141 104.467605,22.2935229 104.176772,22.5416108 C103.88594,22.7896987 103.519553,22.9850294 103.077602,23.1276086 C102.635651,23.2701879 102.120999,23.3414764 101.533632,23.3414764 C101.26561,23.3414764 100.990464,23.3200898 100.708185,23.2773161 C100.425906,23.2345423 100.140781,23.1518476 99.8527997,23.0292294 C99.5648186,22.9066113 99.2768418,22.734093 98.9888606,22.5116693 C98.7008795,22.2892457 98.4200308,21.9983884 98.1463061,21.6390887 L98.8904913,20.9632665 C99.1128926,21.2769408 99.3267368,21.54356 99.5320303,21.763132 C99.7373237,21.9827041 99.9440398,22.1623512 100.152185,22.3020789 C100.360329,22.4418066 100.577025,22.5444621 100.802277,22.6100485 C101.02753,22.675635 101.271312,22.7084277 101.533632,22.7084277 Z M107.038647,9.25186567 C107.181212,9.25186567 107.316647,9.27610378 107.444955,9.32458072 C107.573263,9.37305767 107.684462,9.43864314 107.778555,9.5213391 C107.872648,9.60403506 107.948206,9.7009875 108.005232,9.81219931 C108.062258,9.92341112 108.090771,10.0417501 108.090771,10.1672199 C108.090771,10.2926896 108.062258,10.4110286 108.005232,10.5222404 C107.948206,10.6334522 107.872648,10.7304047 107.778555,10.8131006 C107.684462,10.8957966 107.573263,10.9613821 107.444955,11.009859 C107.316647,11.0583359 107.181212,11.082574 107.038647,11.082574 C106.896082,11.082574 106.762073,11.0583359 106.636616,11.009859 C106.511159,10.9613821 106.401385,10.8957966 106.307293,10.8131006 C106.2132,10.7304047 106.137641,10.6334522 106.080616,10.5222404 C106.02359,10.4110286 105.995077,10.2926896 105.995077,10.1672199 C105.995077,10.0417501 106.02359,9.92341112 106.080616,9.81219931 C106.137641,9.7009875 106.2132,9.60403506 106.307293,9.5213391 C106.401385,9.43864314 106.511159,9.37305767 106.636616,9.32458072 C106.762073,9.27610378 106.896082,9.25186567 107.038647,9.25186567 Z M106.149046,14.2905911 L107.432124,13.7687536 L107.962463,13.7687536 L107.962463,23.144718 L106.149046,23.144718 L106.149046,14.2905911 Z M113.835294,23.3414764 C113.133875,23.3414764 112.485214,23.2188601 111.889293,22.9736238 C111.293371,22.7283875 110.780145,22.3947571 110.349599,21.9727225 C109.919053,21.5506879 109.582605,21.0559453 109.340244,20.4884799 C109.097884,19.9210145 108.976706,19.3150618 108.976706,18.6706036 C108.976706,17.9919264 109.097884,17.3546067 109.340244,16.7586255 C109.582605,16.1626442 109.919053,15.6436636 110.349599,15.2016679 C110.780145,14.7596722 111.293371,14.4103583 111.889293,14.1537157 C112.485214,13.897073 113.133875,13.7687536 113.835294,13.7687536 C114.536713,13.7687536 115.182523,13.8856669 115.772742,14.1194968 C116.36296,14.3533268 116.874761,14.6741253 117.308158,15.0819019 C117.741556,15.4896786 118.079429,15.9687377 118.32179,16.5190936 C118.56415,17.0694494 118.685329,17.6582929 118.685329,18.2856416 C118.685329,18.9814283 118.56415,19.6358572 118.32179,20.248948 C118.079429,20.8620388 117.741556,21.3981287 117.308158,21.8572339 C116.874761,22.316339 116.36296,22.6784849 115.772742,22.9436823 C115.182523,23.2088797 114.536713,23.3414764 113.835294,23.3414764 Z M114.177448,22.6656542 C114.536712,22.6656542 114.866032,22.572979 115.165418,22.387626 C115.464804,22.202273 115.724269,21.9541888 115.943819,21.6433661 C116.163369,21.3325433 116.333018,20.9689717 116.452773,20.5526403 C116.572527,20.1363089 116.632404,19.6971714 116.632404,19.2352146 C116.632404,18.5679438 116.575379,17.9448818 116.461327,17.36601 C116.347275,16.7871383 116.161943,16.2809896 115.905326,15.8475487 C115.64871,15.4141077 115.315113,15.0733485 114.904526,14.8252606 C114.493939,14.5771727 113.989266,14.4531306 113.390494,14.4531306 C113.082553,14.4531306 112.786023,14.5415284 112.500893,14.7183267 C112.215763,14.8951249 111.963427,15.137506 111.743877,15.4454772 C111.524327,15.7534484 111.348975,16.1127427 111.217815,16.5233709 C111.086655,16.9339991 111.021076,17.3702851 111.021076,17.8322419 C111.021076,18.4995127 111.092358,19.126852 111.234923,19.7142785 C111.377488,20.301705 111.582778,20.8135568 111.8508,21.2498493 C112.118822,21.6861418 112.449568,22.0311784 112.843047,22.2849695 C113.236526,22.5387605 113.681322,22.6656542 114.177448,22.6656542 Z M119.614033,13.9569573 L121.436003,13.9569573 L121.436003,15.6336809 C121.989155,15.0120353 122.565109,14.5458082 123.163881,14.2349854 C123.762654,13.9241627 124.372823,13.7687536 124.994406,13.7687536 C125.313751,13.7687536 125.614559,13.841468 125.896837,13.9868988 C126.179116,14.1323296 126.424324,14.3305118 126.632469,14.5814513 C126.840613,14.8323908 127.005986,15.1275254 127.128592,15.466864 C127.251198,15.8062026 127.3125,16.1669227 127.3125,16.549035 L127.3125,23.144718 L125.481976,23.144718 L125.481976,16.8570047 C125.481976,16.2524687 125.345115,15.7933704 125.071391,15.479696 C124.797666,15.1660217 124.446961,15.0091869 124.019267,15.0091869 C123.825378,15.0091869 123.620088,15.0405538 123.403389,15.1032887 C123.186691,15.1660236 122.967144,15.2558472 122.744743,15.3727621 C122.522341,15.4896771 122.299943,15.6294027 122.077542,15.791943 C121.855141,15.9544834 121.641297,16.1355563 121.436003,16.3351672 L121.436003,23.144718 L119.614033,23.144718 L119.614033,13.9569573 Z" id="Best-vision"></path>
                </g>
            </g>
        </g>
    </g>
</svg>