<?xml version="1.0" encoding="UTF-8"?>
<svg width="51px" height="58px" viewBox="0 0 51 58" version="1.1" xmlns="http://www.w3.org/2000/svg" xmlns:xlink="http://www.w3.org/1999/xlink">
    <!-- Generator: Sketch 44.1 (41455) - http://www.bohemiancoding.com/sketch -->
    <title>锁 copy 23</title>
    <desc>Created with Sketch.</desc>
    <defs>
        <polygon id="path-1" points="7.27856004e-21 0.00888947838 7.27856004e-21 24.157844 23.9691719 24.157844 23.9691719 0.00888947838 0 0.00888947838"></polygon>
    </defs>
    <g id="Page-1" stroke="none" stroke-width="1" fill="none" fill-rule="evenodd">
        <g id="设备监控1" transform="translate(-738.000000, -350.000000)">
            <g id="锁" transform="translate(737.988448, 350.739078)">
                <g>
                    <ellipse id="Oval-Copy-2" fill="#F8E81C" cx="25.5" cy="25.1688312" rx="25.5" ry="25.1688312"></ellipse>
                    <path d="M25.5,46.6558442 C13.4921641,46.6558442 3.75,37.0402016 3.75,25.1688312 C3.75,13.2974607 13.4921641,3.68181818 25.5,3.68181818 C37.5078359,3.68181818 47.25,13.2974607 47.25,25.1688312 C47.25,37.0402016 37.5078359,46.6558442 25.5,46.6558442 Z M25.5,43.6558442 C35.8596965,43.6558442 44.25,35.3745056 44.25,25.1688312 C44.25,14.9631567 35.8596965,6.68181818 25.5,6.68181818 C15.1403035,6.68181818 6.75,14.9631567 6.75,25.1688312 C6.75,35.3745056 15.1403035,43.6558442 25.5,43.6558442 Z" id="Oval-Copy-3" fill="#FFFFFF" fill-rule="nonzero"></path>
                    <polygon id="Triangle" fill="#F8E81C" transform="translate(25.875000, 53.298701) scale(1, -1) translate(-25.875000, -53.298701) " points="25.875 49.5974026 31.5 57 20.25 57"></polygon>
                </g>
                <g id="已超时-(1)" transform="translate(13.500000, 13.500000)">
                    <mask id="mask-2" fill="white">
                        <use xlink:href="#path-1"></use>
                    </mask>
                    <g id="Clip-2"></g>
                    <path d="M14.8706014,23.9741258 C14.6345622,24.0337941 14.3968448,24.0859279 14.1576839,24.1305271 C13.9026797,24.1792483 13.6388476,24.121168 13.4272448,23.9696321 C13.2205762,23.8220831 13.0794965,23.5990534 13.0341483,23.3482843 C12.9378797,22.8164052 13.2836476,22.306285 13.8061762,22.2080992 C14.0073063,22.1704602 14.2073958,22.1266719 14.4059077,22.076633 C14.9218573,21.9458425 15.4450238,22.2643212 15.5736503,22.7882941 C15.7024112,23.3122333 15.3878601,23.8434704 14.8706014,23.9741258 Z M22.7491133,9.58960302 C22.4476867,9.69096481 22.1311552,9.63274936 21.8900476,9.46013022 C21.727586,9.34437505 21.5982881,9.17557387 21.530786,8.96889717 C21.4665063,8.77184983 21.396621,8.57689731 21.3208615,8.38407339 C21.1225846,7.88307582 21.3637259,7.31396312 21.8575217,7.11309783 C22.3514517,6.91236768 22.9128839,7.15759566 23.1098182,7.65805263 C23.200179,7.88770467 23.2838266,8.11999212 23.3606601,8.35464468 C23.5277203,8.86753537 23.2534154,9.41961929 22.7491133,9.58960302 Z M18.5986909,22.3120964 C18.3955804,22.448428 18.1881399,22.5779008 17.9768056,22.70065 C17.6407385,22.8982379 17.2372699,22.8668158 16.9403077,22.6541925 C16.8291021,22.5743532 16.7343105,22.4709979 16.6608671,22.3435186 C16.3957594,21.8759028 16.5529846,21.2766857 17.0143888,21.0071985 C17.1916531,20.9039784 17.3656615,20.795082 17.5361119,20.6808135 C17.9805986,20.3831815 18.5778462,20.5068428 18.8708811,20.9574298 C19.165393,21.4074762 19.0425399,22.0144644 18.5986909,22.3120964 Z M22.9811916,13.3979346 C22.790165,13.3935761 22.6049119,13.331813 22.4489958,13.2205515 C22.1850629,13.0324578 22.0316308,12.7244193 22.0396531,12.3990817 C22.0440839,12.192405 22.0422713,11.9830929 22.0337455,11.776923 C22.0129007,11.2374079 22.426842,10.7833747 22.9590378,10.7612102 C23.4912671,10.7402283 23.9390434,11.160846 23.9598881,11.6998543 C23.9689175,11.9457242 23.9715357,12.195581 23.9669706,12.4422618 C23.9539804,12.9825878 23.513421,13.4110103 22.9811916,13.3979346 Z M21.5664336,19.4758244 C21.419849,19.6743246 21.2673566,19.8683311 21.1089566,20.0573033 C20.7827245,20.4445391 20.2239105,20.5113365 19.8216503,20.2228271 C19.7976503,20.2051226 19.7741538,20.1882289 19.7508252,20.167247 C19.3452755,19.8179205 19.2966378,19.200492 19.6424056,18.7883212 C19.772979,18.6320551 19.9029147,18.4692004 20.0244587,18.3030347 C20.3447832,17.871301 20.9478042,17.7823391 21.3740979,18.1080821 C21.799821,18.4312911 21.8855832,19.0442259 21.5664336,19.4758244 Z M23.421751,15.7984185 C23.348979,16.0320236 23.2690238,16.2674871 23.1819524,16.4977811 C22.9928727,17.0032724 22.4366769,17.2565417 21.9388196,17.0634475 C21.8634294,17.0341539 21.7918322,16.9957378 21.7257399,16.94901 C21.3740979,16.6971935 21.2214713,16.2281249 21.3812811,15.8023716 C21.4539189,15.6080948 21.5210517,15.4118246 21.5826797,15.2137298 C21.741986,14.6982038 22.2819357,14.411012 22.790165,14.5733598 C23.2975888,14.7342548 23.5809566,15.2830275 23.421751,15.7984185 Z M20.362372,4.98794641 L17.0910881,5.28554464 C16.7246098,5.3182845 16.595849,5.09522098 16.8057734,4.78718248 L17.5582657,3.68304844 C14.0537287,1.31118241 9.57116643,1.46744851 6.26997483,3.77528767 C6.25829371,3.78309253 6.24664615,3.79164071 6.23483077,3.79944556 C5.29852867,4.46147324 4.45883077,5.29480236 3.76430769,6.2949392 C0.571300699,10.8946361 1.66167273,17.2735705 6.19327552,20.513972 C6.50165035,20.7342649 6.82184056,20.9371237 7.1524028,21.1216021 C7.15307413,21.1216021 7.15438322,21.1229536 7.15438322,21.1229536 C7.33309091,21.2224571 7.51770629,21.3165547 7.70282517,21.4041988 C7.71188811,21.4087939 7.72041399,21.4147404 7.72944336,21.4192342 C8.51315245,21.7927524 9.3403972,22.0602799 10.2014434,22.2166812 C10.7259189,22.3120964 11.0734993,22.8198177 10.979379,23.3522374 C10.8857622,23.8833394 10.3847497,24.2378354 9.86104615,24.142285 C8.13435524,23.8271174 6.52736224,23.1454255 5.08400559,22.112684 C4.5316028,21.7181839 4.01958042,21.2819903 3.54847552,20.8109282 C3.54716643,20.8089686 3.54518601,20.8089686 3.54387692,20.8062994 L3.53155804,20.7938994 C1.77861818,19.0316908 0.608257343,16.7659506 0.17806993,14.250117 C0.136481119,14.0022874 0.103317483,13.7563837 0.0753902098,13.5097029 C0.072772028,13.4933499 0.0696167832,13.4796322 0.0683076923,13.4632454 C0.0428643357,13.2180512 0.0228251748,12.969377 0.0123188811,12.724149 C0.0118153846,12.7162428 0.0123188811,12.707796 0.0123188811,12.6998897 C-0.100027972,10.1881444 0.554383217,7.72218086 1.91053427,5.58912322 C1.9196979,5.5727364 1.92808951,5.55702532 1.93846154,5.54198999 C2.01975944,5.41369974 2.10552168,5.28554464 2.19255944,5.159383 C2.24606434,5.0829562 2.30020699,5.00707 2.35502098,4.9317244 C2.36733986,4.91401987 2.38163916,4.89766684 2.39526713,4.88063806 C4.03911608,2.65145565 6.34274685,1.08879463 8.98439161,0.400007435 C8.99476364,0.396696283 9.00708252,0.392878322 9.0188979,0.38956717 L9.02463776,0.38956717 C9.32492308,0.311045565 9.62896783,0.245700994 9.93697343,0.190661538 C12.999642,-0.348346706 16.0851357,0.320810085 18.6565259,2.07261222 L19.410965,0.96580898 C19.6208895,0.659088185 19.8730406,0.702234523 19.9711217,1.06200132 L20.8490853,4.27364983 C20.9478042,4.63277468 20.728179,4.95520655 20.362372,4.98794641 Z M18.7676979,16.3322573 C18.6285986,16.6036366 18.3562406,16.7600378 18.0742154,16.7600378 C17.9500531,16.7599027 17.8277035,16.7295279 17.717572,16.6717179 L10.6134042,12.9452191 L10.6134042,5.06251491 C10.6134042,4.62632131 10.9624615,4.27101443 11.3933203,4.27101443 C11.8235077,4.27101443 12.1717594,4.62632131 12.1717594,5.06251491 L12.1717594,11.9810994 L18.4329399,15.2666407 C18.8150266,15.4662221 18.9651692,15.9430618 18.7676979,16.3322573 Z" id="Fill-1" fill="#FFFFFF" mask="url(#mask-2)"></path>
                </g>
            </g>
        </g>
    </g>
</svg>