<?xml version="1.0" encoding="UTF-8"?>
<svg width="52px" height="57px" viewBox="0 0 52 57" version="1.1" xmlns="http://www.w3.org/2000/svg" xmlns:xlink="http://www.w3.org/1999/xlink">
    <!-- Generator: Sketch 44.1 (41455) - http://www.bohemiancoding.com/sketch -->
    <title>锁 copy 30</title>
    <desc>Created with Sketch.</desc>
    <defs>
        <polygon id="path-1" points="0.00250606737 0.0157882244 0.00250606737 20.9256208 3.8018295 20.9256208 3.8018295 0.0157882244"></polygon>
    </defs>
    <g id="Page-1" stroke="none" stroke-width="1" fill="none" fill-rule="evenodd">
        <g id="设备监控1" transform="translate(-822.000000, -520.000000)">
            <g id="锁" transform="translate(822.656752, 520.075687)">
                <g>
                    <ellipse id="Oval-Copy-2" fill="#D0011B" cx="25.5" cy="25.1688312" rx="25.5" ry="25.1688312"></ellipse>
                    <path d="M25.5,46.6558442 C13.4921641,46.6558442 3.75,37.0402016 3.75,25.1688312 C3.75,13.2974607 13.4921641,3.68181818 25.5,3.68181818 C37.5078359,3.68181818 47.25,13.2974607 47.25,25.1688312 C47.25,37.0402016 37.5078359,46.6558442 25.5,46.6558442 Z M25.5,43.6558442 C35.8596965,43.6558442 44.25,35.3745056 44.25,25.1688312 C44.25,14.9631567 35.8596965,6.68181818 25.5,6.68181818 C15.1403035,6.68181818 6.75,14.9631567 6.75,25.1688312 C6.75,35.3745056 15.1403035,43.6558442 25.5,43.6558442 Z" id="Oval-Copy-3" fill="#FFFFFF" fill-rule="nonzero"></path>
                    <polygon id="Triangle" fill="#D0011B" transform="translate(25.875000, 53.298701) scale(1, -1) translate(-25.875000, -53.298701) " points="25.875 49.5974026 31.5 57 20.25 57"></polygon>
                </g>
                <g id="异常-(1)" transform="translate(23.749791, 14.584239)">
                    <mask id="mask-2" fill="white">
                        <use xlink:href="#path-1"></use>
                    </mask>
                    <g id="Clip-2"></g>
                    <path d="M1.90093564,20.9256208 C0.760299072,20.9256208 0,20.1653217 0,19.0246851 C0,17.8842156 0.760299072,17.1239166 1.90093564,17.1239166 C3.04136336,17.1239166 3.8018295,17.8842156 3.8018295,19.0246851 C3.8018295,20.1653217 3.04136336,20.9256208 1.90093564,20.9256208 Z M3.8018295,13.3220871 C3.8018295,14.4625566 3.04136336,15.2230227 1.90093564,15.2230227 C0.760299072,15.2230227 0,14.4625566 0,13.3220871 L0,1.91668209 C0,0.776087297 0.760299072,0.0157882244 1.90093564,0.0157882244 C3.04136336,0.0157882244 3.8018295,0.776087297 3.8018295,1.91668209 L3.8018295,13.3220871 Z" id="Fill-1" fill="#FFFFFF" mask="url(#mask-2)"></path>
                </g>
            </g>
        </g>
    </g>
</svg>