<?xml version="1.0" encoding="UTF-8"?>
<svg width="30px" height="34px" viewBox="0 0 30 34" version="1.1" xmlns="http://www.w3.org/2000/svg" xmlns:xlink="http://www.w3.org/1999/xlink">
    <!-- Generator: Sketch 44.1 (41455) - http://www.bohemiancoding.com/sketch -->
    <title>锁 copy 32</title>
    <desc>Created with Sketch.</desc>
    <defs></defs>
    <g id="Page-1" stroke="none" stroke-width="1" fill="none" fill-rule="evenodd">
        <g id="桩位监控5" transform="translate(-302.000000, -185.000000)">
            <g id="Group" transform="translate(270.000000, 167.000000)">
                <g id="锁" transform="translate(32.000000, 18.000000)">
                    <g>
                        <ellipse id="Oval-Copy-2" fill="#9B9B9B" cx="15" cy="15.012987" rx="15" ry="15.012987"></ellipse>
                        <path d="M15,27.8298018 C7.93656713,27.8298018 2.20588235,22.0941554 2.20588235,15.012987 C2.20588235,7.93181866 7.93656713,2.19617225 15,2.19617225 C22.0634329,2.19617225 27.7941176,7.93181866 27.7941176,15.012987 C27.7941176,22.0941554 22.0634329,27.8298018 15,27.8298018 Z M15,26.0403281 C21.0939391,26.0403281 26.0294118,21.1005823 26.0294118,15.012987 C26.0294118,8.92539172 21.0939391,3.98564593 15,3.98564593 C8.90606089,3.98564593 3.97058824,8.92539172 3.97058824,15.012987 C3.97058824,21.1005823 8.90606089,26.0403281 15,26.0403281 Z" id="Oval-Copy-3" fill="#FFFFFF" fill-rule="nonzero"></path>
                        <polygon id="Triangle" fill="#9B9B9B" transform="translate(15.220588, 31.792208) scale(1, -1) translate(-15.220588, -31.792208) " points="15.2205882 29.5844156 18.5294118 34 11.9117647 34"></polygon>
                        <rect id="Rectangle-4" fill="#FFFFFF" x="9.83310106" y="13.0422984" width="10.3337979" height="6.64191216" rx="1"></rect>
                        <path d="M13.3559867,11.4852552 L13.3559867,15.0107007 C13.3559867,15.9186063 14.0927262,16.6563825 15,16.6563825 C15.9081313,16.6563825 16.6440133,15.9197318 16.6440133,15.0107007 L16.6440133,11.4852552 C16.6440133,10.5773496 15.9072738,9.83957339 15,9.83957339 C14.0918687,9.83957339 13.3559867,10.5762242 13.3559867,11.4852552 Z M12.4165505,11.4852552 C12.4165505,10.0570847 13.5728865,8.89932386 15,8.89932386 C16.4267997,8.89932386 17.5834495,10.0587547 17.5834495,11.4852552 L17.5834495,15.0107007 C17.5834495,16.4388712 16.4271135,17.5966321 15,17.5966321 C13.5732003,17.5966321 12.4165505,16.4372012 12.4165505,15.0107007 L12.4165505,11.4852552 Z" id="Rectangle-3" fill="#FFFFFF" fill-rule="nonzero"></path>
                        <ellipse id="Oval-2" fill="#9B9B9B" cx="15" cy="16.9928462" rx="1" ry="1"></ellipse>
                        <rect id="Rectangle-5" fill="#9B9B9B" x="14.765141" y="15.3474095" width="1" height="2.35062384" rx="0.5"></rect>
                    </g>
                </g>
            </g>
        </g>
    </g>
</svg>