<?xml version="1.0" encoding="UTF-8"?>
<svg width="143px" height="144px" viewBox="0 0 143 144" version="1.1" xmlns="http://www.w3.org/2000/svg" xmlns:xlink="http://www.w3.org/1999/xlink">
    <!-- Generator: Sketch 44.1 (41455) - http://www.bohemiancoding.com/sketch -->
    <title>Group 4</title>
    <desc>Created with Sketch.</desc>
    <defs></defs>
    <g id="Page-1" stroke="none" stroke-width="1" fill="none" fill-rule="evenodd">
        <g id="index1" transform="translate(-586.000000, -169.000000)">
            <g id="Group-6" transform="translate(317.000000, 169.000000)">
                <g id="Group-4" transform="translate(339.000000, 72.000000) scale(-1, 1) translate(-339.000000, -72.000000) translate(269.000000, 0.000000)">
                    <ellipse id="Oval-2" stroke="#F6A623" stroke-width="18" stroke-linejoin="round" cx="65.9703947" cy="73.5039606" rx="59.4942434" ry="59.4561786"></ellipse>
                    <path d="M3.56353905,34.9665093 C16.492577,14.1006137 39.6072651,0.201280853 65.9703947,0.201280853 C106.480265,0.201280853 139.320004,33.0200085 139.320004,73.5039606 C139.320004,106.62784 117.33552,134.620254 87.1529651,143.703608 L86.8779206,142.824833 C116.68613,133.858413 138.398951,106.215215 138.398951,73.5039606 C138.398951,33.5283663 105.971582,1.12174419 65.9703947,1.12174419 C39.8814297,1.12174419 17.0141476,14.9065833 4.26364513,35.5855764 L3.56353905,34.9665093 Z" id="Combined-Shape" fill="#FFCA00" fill-rule="nonzero"></path>
                    <path d="M65.9703947,139.015062 L65.9703947,127.969502 C66.2490587,127.969502 66.5274564,127.967416 66.8055739,127.96325 L66.9712589,139.007568 C66.637918,139.012563 66.3042904,139.015062 65.9703947,139.015062 Z M70.9919066,138.825457 L70.1560713,127.811527 C70.4351924,127.790371 70.713945,127.7671 70.9923136,127.741718 L71.9965879,138.741587 C71.662115,138.772085 71.3272144,138.800044 70.9919066,138.825457 Z M75.994273,138.2532 L74.3167879,127.335598 C74.5917379,127.293406 74.8662167,127.249128 75.1402076,127.202772 L76.9851536,138.09336 C76.655421,138.149148 76.3251203,138.20243 75.994273,138.2532 Z M80.9524165,137.294991 L78.4353999,126.539661 C78.7063518,126.476333 78.9767167,126.410938 79.2464767,126.343485 L81.9292477,137.058724 C81.6043513,137.139964 81.2787333,137.218723 80.9524165,137.294991 Z M85.7954121,135.96423 L82.4561445,125.434845 C82.7214653,125.35081 82.9860776,125.264743 83.2499623,125.176656 L86.7516287,135.653221 C86.43376,135.759329 86.1150132,135.863002 85.7954121,135.96423 Z M90.5449083,134.254693 L86.399334,124.015524 C86.65812,123.910882 86.9160659,123.80425 87.1731515,123.69564 L91.4767732,133.869476 C91.1671864,134.000266 90.8565566,134.128676 90.5449083,134.254693 Z M95.1548902,132.179281 L90.2282302,122.29174 C90.478005,122.167444 90.7268098,122.041228 90.9746243,121.913105 L96.0532363,131.723564 C95.7549808,131.877765 95.4555238,132.029676 95.1548902,132.179281 Z M99.5347313,129.787063 L93.868149,120.30364 C94.1077291,120.160668 94.3462094,120.015857 94.583569,119.869221 L100.39525,129.264536 C100.109759,129.440907 99.8229114,129.615089 99.5347313,129.787063 Z M103.75852,127.041203 L97.3805791,118.02021 C97.608622,117.859188 97.8354331,117.696417 98.060992,117.531915 L104.576452,126.454217 C104.305312,126.651962 104.03266,126.847631 103.75852,127.041203 Z M107.762882,123.977098 L100.712288,115.470799 C100.927091,115.292984 101.140537,115.113528 101.352607,114.932451 L108.532297,123.330212 C108.277475,123.547794 108.020995,123.763429 107.762882,123.977098 Z M111.524279,120.61245 L103.842855,112.670435 C104.043536,112.476587 104.242736,112.28121 104.440435,112.084323 L112.242217,119.90829 C112.0047,120.144831 111.765379,120.379559 111.524279,120.61245 Z M115.016103,116.97104 L106.749241,109.639546 C106.934626,109.430777 107.11841,109.220598 107.300577,109.009029 L115.678551,116.213453 C115.45967,116.467663 115.238847,116.7202 115.016103,116.97104 Z M118.225448,113.064529 L109.419952,106.388691 C109.588359,106.166844 109.755065,105.943721 109.920054,105.71934 L118.826555,112.259991 C118.628239,112.529695 118.427864,112.797883 118.225448,113.064529 Z M121.06083,109.022589 L111.778431,103.026617 C111.92978,102.792613 112.079329,102.557456 112.227066,102.321168 L121.600366,108.174203 C121.422691,108.458376 121.242839,108.74118 121.06083,109.022589 Z M123.630441,104.693429 L113.914582,99.4277623 C114.047515,99.1827982 114.178561,98.9368123 114.307708,98.6898254 L124.103523,103.805404 C123.948104,104.102634 123.790405,104.398651 123.630441,104.693429 Z M125.861543,100.174163 L115.768157,95.6732447 C115.881757,95.4188196 115.993399,95.1635038 116.10307,94.9073175 L126.264811,99.2519126 C126.132753,99.5603936 125.998325,99.8678187 125.861543,100.174163 Z M127.736933,95.4953561 L117.325407,91.7881754 C117.418847,91.5260871 117.510274,91.2632384 117.59968,90.9996487 L128.067304,94.5455466 C127.959612,94.863053 127.849484,95.1796642 127.736933,95.4953561 Z M129.244945,90.6831236 L118.577323,87.7931756 C118.650169,87.5246237 118.720958,87.2554353 118.789683,86.9856288 L129.50073,89.7104479 C129.417953,90.0354198 129.332688,90.3596528 129.244945,90.6831236 Z M130.376381,85.7641623 L119.516852,83.7084633 C119.568674,83.4350578 119.618411,83.161134 119.666057,82.8867091 L130.55598,84.7750116 C130.498631,85.105322 130.438762,85.4350462 130.376381,85.7641623 Z M131.124084,80.7719784 L120.138294,79.5590474 C120.1689,79.2821962 120.197406,79.004937 120.223807,78.7272858 L131.226872,79.7721946 C131.195141,80.1059027 131.160876,80.4391708 131.124084,80.7719784 Z M131.485885,75.7407114 L120.439488,75.3697686 C120.448856,75.0911567 120.456125,74.8122393 120.461292,74.5330308 L131.512034,74.7372653 C131.505839,75.0720556 131.497121,75.406544 131.485885,75.7407114 Z M131.465075,70.7164511 L120.422143,71.1790871 C120.410442,70.9001642 120.396637,70.6215627 120.38073,70.3432975 L131.415371,69.7133269 C131.434464,70.0473451 131.451034,70.3817264 131.465075,70.7164511 Z M131.062906,65.7025471 L120.087412,67.0052405 C120.054605,66.7291932 120.019708,66.453568 119.982727,66.1783812 L130.937008,64.708138 C130.981487,65.0391127 131.023455,65.3705894 131.062906,65.7025471 Z M130.275503,60.723126 L119.433059,62.8669957 C119.378922,62.5935502 119.322695,62.3206416 119.264388,62.0482877 L130.072418,59.7373758 C130.142625,60.065311 130.210323,60.3939019 130.275503,60.723126 Z M129.112322,55.8432058 L118.46722,58.814929 C118.392361,58.5471169 118.315452,58.2799576 118.236504,58.0134696 L128.834411,54.8777967 C128.92951,55.1988006 129.022151,55.5206114 129.112322,55.8432058 Z M127.566712,51.0408721 L117.184086,54.8281361 C117.088554,54.5665748 116.991014,54.305793 116.891475,54.0458102 L127.214278,50.0986022 C127.334165,50.4117327 127.451647,50.7258308 127.566712,51.0408721 Z M125.649043,46.3628551 L115.591662,50.943562 C115.476269,50.6905311 115.358935,50.4384061 115.23967,50.1872073 L125.22528,45.4522784 C125.368859,45.7546884 125.510118,46.0582221 125.649043,46.3628551 Z M123.404551,41.9017784 L113.726853,47.2371666 C113.592429,46.9936507 113.456137,46.7511701 113.31799,46.5097453 L122.912622,41.0265732 C123.07883,41.3170368 123.242812,41.60878 123.404551,41.9017784 Z M120.801555,37.5876243 L111.562819,43.6505733 C111.409775,43.4176623 111.254944,43.1859212 111.098341,42.9553706 L120.243063,36.751708 C120.431358,37.0289155 120.617528,37.3075624 120.801555,37.5876243 Z M117.877696,33.4894025 L109.130612,40.2414981 C108.959932,40.020671 108.787559,39.8011462 108.613512,39.5829438 L117.256243,32.69795 C117.46541,32.960181 117.672567,33.2240065 117.877696,33.4894025 Z M114.639207,29.6160907 L106.435551,37.0181521 C106.248862,36.8115108 106.060598,36.6062909 105.870777,36.4025115 L113.960655,28.8764234 C114.188715,29.1212542 114.414906,29.3678176 114.639207,29.6160907 Z M111.116387,26.004832 L103.503346,34.0123379 C103.30129,33.8204808 103.097774,33.6301657 102.892819,33.4414108 L110.382876,25.3188988 C110.629119,25.5456774 110.87363,25.774329 111.116387,26.004832 Z M107.321081,22.6683174 L100.344634,31.2354546 C100.128414,31.059606 99.9108579,30.885412 99.6919864,30.7128895 L106.536768,22.0403298 C106.7998,22.247661 107.061246,22.4569969 107.321081,22.6683174 Z M103.304385,19.6489129 L97.0028297,28.7233599 C96.7739768,28.5646412 96.5439176,28.4076766 96.3126724,28.2524817 L102.4746,19.0827697 C102.752637,19.269368 103.02924,19.4580885 103.304385,19.6489129 Z M99.1305238,16.9816031 L93.5321297,26.5053877 C93.2919203,26.3643654 93.0506324,26.2251877 92.8082863,26.0878684 L98.2597091,16.4793096 C98.5512712,16.644516 98.841551,16.8119527 99.1305238,16.9816031 Z M94.6869094,14.5980847 L89.839443,24.5246412 C89.5888379,24.4024189 89.3372832,24.2821244 89.0847993,24.1637697 L93.7784672,14.1636667 C94.0824169,14.3061466 94.3852392,14.4509575 94.6869094,14.5980847 Z M90.0748074,12.5652609 L86.0089887,22.8363203 C85.749871,22.7338793 85.4899345,22.6334289 85.2291989,22.5349793 L89.1356372,12.2023293 C89.4496697,12.3209029 89.7627345,12.4418843 90.0748074,12.5652609 Z M85.3143033,10.8933549 L82.0567475,21.4482732 C81.7907004,21.3662683 81.5239619,21.2863012 81.2565509,21.2083805 L84.3504006,10.6043843 C84.672518,10.6982459 84.9938267,10.794573 85.3143033,10.8933549 Z M80.4377511,9.59483537 C80.1106716,9.52117709 79.7829157,9.45001704 79.454506,9.38136397 L77.1914882,20.1929179 C77.4642282,20.2499333 77.7364155,20.3090287 78.0080325,20.3701969 L80.4377511,9.59483537 Z M75.4723339,8.67677916 C75.1407389,8.62862613 74.8086182,8.582994 74.4759934,8.53988974 L73.0546849,19.4937412 C73.3312269,19.5295778 73.6073291,19.5675132 73.882975,19.6075415 L75.4723339,8.67677916 Z M70.4519243,8.14376234 C70.1179153,8.12119791 69.7835242,8.10115616 69.4487709,8.08364237 L68.8709349,19.114097 C69.1497875,19.1286861 69.4283049,19.1453791 69.7064722,19.1641711 L70.4519243,8.14376234 Z M65.4117508,7.99519261 C65.0758041,7.99799995 64.7401433,8.00333957 64.4047875,8.01120704 L64.6641774,19.0537248 C64.9438847,19.0471629 65.2238863,19.0427087 65.5041681,19.0403665 L65.4117508,7.99519261 Z M60.390607,8.2271595 C60.0558465,8.25539071 59.7215079,8.28616208 59.3876121,8.31946764 L60.4853451,19.3104148 C60.7631727,19.282702 61.0413952,19.2570953 61.3199969,19.2336001 L60.390607,8.2271595 Z M55.3941926,8.84189307 C55.0623698,8.89571756 54.7311149,8.95207432 54.4004498,9.0109556 L56.3393054,19.8852392 C56.614037,19.836318 56.8892734,19.7894917 57.1649974,19.7447669 L55.3941926,8.84189307 Z M50.4382106,9.84403668 C50.1115027,9.92339272 49.7855154,10.0052511 49.4602719,10.0896023 L52.236616,20.7810087 C52.5066518,20.7109755 52.7773102,20.6430107 53.0485727,20.5771221 L50.4382106,9.84403668 Z M45.6120207,11.2151505 L49.0418724,21.7154154 C48.7766502,21.8019379 48.5121538,21.8904955 48.2484025,21.9810789 L44.6562345,11.5351595 C44.9739379,11.4260467 45.2925413,11.3193732 45.6120207,11.2151505 Z M40.8756669,12.9661943 L45.1094798,23.1692406 C44.8524498,23.2757602 44.5962688,23.3842499 44.3409568,23.4946984 L39.950225,13.3581047 C40.2576599,13.2251076 40.5661487,13.0944663 40.8756669,12.9661943 Z M36.2813159,15.0824639 L41.2933358,24.9270658 C41.0445615,25.0535581 40.7967724,25.181963 40.5499891,25.3122677 L35.3867005,15.5460529 C35.683694,15.3892367 35.9819074,15.2347018 36.2813159,15.0824639 Z M31.9245471,17.5110123 L37.672332,26.9455036 C37.4341593,27.0904202 37.1970996,27.2371635 36.9611733,27.3857193 L31.0692139,18.0404735 C31.352961,17.8618064 31.6380803,17.6853136 31.9245471,17.5110123 Z M27.7259723,20.2918362 L34.1806393,29.2581602 C33.9544099,29.4208097 33.7294218,29.5851893 33.5056955,29.7512831 L26.9146597,20.8845917 C27.1835821,20.6849446 27.4540277,20.487353 27.7259723,20.2918362 Z M23.7440449,23.3931273 L30.8674388,31.838633 C30.6541557,32.0182973 30.4422435,32.1995895 30.2317219,32.3824919 L22.9801836,24.0466143 C23.2331376,23.8268463 23.4877658,23.6090104 23.7440449,23.3931273 Z M20.0163747,26.7852743 L27.7648794,34.6619407 C27.5661703,34.8571666 27.3689511,35.053903 27.1732406,35.2521313 L19.3055762,27.4943329 C19.540704,27.2561802 19.7776442,27.01982 20.0163747,26.7852743 Z M16.5513747,30.4609308 L24.8808494,37.7213027 C24.6974404,37.9314498 24.5156411,38.1429902 24.3354694,38.3559039 L15.8960637,31.2234472 C16.1125553,30.9676135 16.3309992,30.7134336 16.5513747,30.4609308 Z M13.3751437,34.3955693 L22.237798,40.9954354 C22.071069,41.2190416 21.9060573,41.4439143 21.7427792,41.6700329 L12.7801148,35.206458 C12.9763854,34.9346492 13.1747348,34.6643449 13.3751437,34.3955693 Z M10.57716,38.4579218 L19.9105683,44.3742822 C19.7611862,44.6096399 19.6136145,44.8461358 19.4678677,45.0837494 L10.0447232,39.3111995 C10.2200186,39.0254123 10.3975034,38.7409782 10.57716,38.4579218 Z" id="Oval-2-Copy" fill="#FFFFFF" fill-rule="nonzero" opacity="0.645776721"></path>
                    <g id="Group-5" transform="translate(0.000000, 30.587358)">
                        <ellipse id="Oval-4" fill="#F6A623" cx="4.60526316" cy="4.60231668" rx="2.76315789" ry="2.76139001"></ellipse>
                        <polygon id="Rectangle-9" fill="#FFFFFF" transform="translate(13.815789, 10.279322) rotate(32.000000) translate(-13.815789, -10.279322) " points="6.62143234 9.7272882 21.0101466 9.51845206 21.0101466 10.831355 6.62143234 11.0401912"></polygon>
                        <path d="M4.60526316,9.20463335 C2.06184655,9.20463335 0,7.14410599 0,4.60231668 C0,2.06052736 2.06184655,0 4.60526316,0 C7.14867977,0 9.21052632,2.06052736 9.21052632,4.60231668 C9.21052632,7.14410599 7.14867977,9.20463335 4.60526316,9.20463335 Z M4.60526316,7.36370668 C6.13131312,7.36370668 7.36842105,6.12739026 7.36842105,4.60231668 C7.36842105,3.07724309 6.13131312,1.84092667 4.60526316,1.84092667 C3.07921319,1.84092667 1.84210526,3.07724309 1.84210526,4.60231668 C1.84210526,6.12739026 3.07921319,7.36370668 4.60526316,7.36370668 Z" id="Oval-3" fill="#FFFFFF" fill-rule="nonzero"></path>
                    </g>
                </g>
            </g>
        </g>
    </g>
</svg>