<?xml version="1.0" encoding="UTF-8"?>
<svg width="47px" height="33px" viewBox="0 0 47 33" version="1.1" xmlns="http://www.w3.org/2000/svg" xmlns:xlink="http://www.w3.org/1999/xlink">
    <!-- Generator: Sketch 44.1 (41455) - http://www.bohemiancoding.com/sketch -->
    <title>logo</title>
    <desc>Created with Sketch.</desc>
    <defs></defs>
    <g id="Page-1" stroke="none" stroke-width="1" fill="none" fill-rule="evenodd">
        <g id="index1" transform="translate(-19.000000, -15.000000)" fill="#FFFFFF">
            <g id="Group" transform="translate(19.000000, 15.000000)">
                <g id="logo" transform="translate(0.479588, 0.242806)">
                    <path d="M5.61645694,14.7746502 C5.60226094,15.0704904 5.59507593,15.3684508 5.59507593,15.6683381 C5.59507593,24.6548837 12.3843036,31.9976634 20.8383667,31.9976634 C29.0919782,31.9976634 35.8414905,24.6125978 35.8414905,15.6683381 C35.8414905,15.3144678 35.8314511,14.9631779 35.8116694,14.6147979 L34.1705714,16.0446929 C33.9862364,23.9440931 28.0174948,30.3524239 20.8383667,30.3524239 C13.4654537,30.3524239 7.46483889,23.9955953 7.2666622,16.0729409 L5.61645694,14.7746502 Z" id="Combined-Shape" fill-rule="nonzero"></path>
                    <path d="M6.83466795,9.59191911 C9.12320744,4.045905 14.5441736,0.157682741 20.9140824,0.157682741 C27.0220751,0.157682741 32.3029334,3.9304951 34.6383097,9.31435402 L33.2290566,10.2541005 C31.2130379,5.29712724 26.4362178,1.80292218 20.9140824,1.80292218 C15.1087549,1.80292218 10.1841291,5.43579874 8.23349713,10.5781671 L6.83466795,9.59191911 Z" id="Combined-Shape" fill-rule="nonzero"></path>
                    <path d="M0.00672031889,6.90776192 C0.00672031889,6.90776192 16.0114773,22.1314348 20.8383667,22.0743273 C25.8147503,22.016907 41.6700132,6.90776192 41.6700132,6.90776192 C41.6700132,6.90776192 27.5599276,17.699214 20.8383667,17.7431416 C14.2663,17.8545183 0.00672031889,6.90776192 0.00672031889,6.90776192 Z" id="Path-2"></path>
                    <path d="M46.3395507,2.42270136 L43.1428058,5.79912235 C43.1428058,5.79912235 43.5327983,5.247383 43.466795,4.86814688 C43.4007917,4.48891076 42.0887221,4.36518917 42.0887221,4.36518917 L46.3395507,2.42270136 Z" id="Path-4" transform="translate(44.214136, 4.110912) rotate(5.000000) translate(-44.214136, -4.110912) "></path>
                </g>
            </g>
        </g>
    </g>
</svg>