<?xml version="1.0" encoding="UTF-8"?>
<svg width="144px" height="33px" viewBox="0 0 144 33" version="1.1" xmlns="http://www.w3.org/2000/svg" xmlns:xlink="http://www.w3.org/1999/xlink">
    <!-- Generator: Sketch 44.1 (41455) - http://www.bohemiancoding.com/sketch -->
    <title>Group</title>
    <desc>Created with Sketch.</desc>
    <defs></defs>
    <g id="Page-1" stroke="none" stroke-width="1" fill="none" fill-rule="evenodd">
        <g id="index1" transform="translate(-19.000000, -15.000000)" fill="#FFFFFF">
            <g id="Group" transform="translate(19.000000, 15.000000)">
                <g id="logo" transform="translate(0.479588, 0.242806)">
                    <path d="M5.61645694,14.7746502 C5.60226094,15.0704904 5.59507593,15.3684508 5.59507593,15.6683381 C5.59507593,24.6548837 12.3843036,31.9976634 20.8383667,31.9976634 C29.0919782,31.9976634 35.8414905,24.6125978 35.8414905,15.6683381 C35.8414905,15.3144678 35.8314511,14.9631779 35.8116694,14.6147979 L34.1705714,16.0446929 C33.9862364,23.9440931 28.0174948,30.3524239 20.8383667,30.3524239 C13.4654537,30.3524239 7.46483889,23.9955953 7.2666622,16.0729409 L5.61645694,14.7746502 Z" id="Combined-Shape" fill-rule="nonzero"></path>
                    <path d="M6.83466795,9.59191911 C9.12320744,4.045905 14.5441736,0.157682741 20.9140824,0.157682741 C27.0220751,0.157682741 32.3029334,3.9304951 34.6383097,9.31435402 L33.2290566,10.2541005 C31.2130379,5.29712724 26.4362178,1.80292218 20.9140824,1.80292218 C15.1087549,1.80292218 10.1841291,5.43579874 8.23349713,10.5781671 L6.83466795,9.59191911 Z" id="Combined-Shape" fill-rule="nonzero"></path>
                    <path d="M0.00672031889,6.90776192 C0.00672031889,6.90776192 16.0114773,22.1314348 20.8383667,22.0743273 C25.8147503,22.016907 41.6700132,6.90776192 41.6700132,6.90776192 C41.6700132,6.90776192 27.5599276,17.699214 20.8383667,17.7431416 C14.2663,17.8545183 0.00672031889,6.90776192 0.00672031889,6.90776192 Z" id="Path-2"></path>
                    <path d="M46.3395507,2.42270136 L43.1428058,5.79912235 C43.1428058,5.79912235 43.5327983,5.247383 43.466795,4.86814688 C43.4007917,4.48891076 42.0887221,4.36518917 42.0887221,4.36518917 L46.3395507,2.42270136 Z" id="Path-4" transform="translate(44.214136, 4.110912) rotate(5.000000) translate(-44.214136, -4.110912) "></path>
                </g>
                <path d="M50.44375,10.1678779 L56.2198036,10.1678779 C56.9817111,10.1678779 57.6818318,10.2534517 58.3201867,10.4246017 C58.9585417,10.5957517 59.50594,10.8353582 59.9623981,11.1434283 C60.4188561,11.4514983 60.7740644,11.8211769 61.0280336,12.252475 C61.2820028,12.6837731 61.4089855,13.159563 61.4089855,13.6798591 C61.4089855,14.0700812 61.3678019,14.4192221 61.2854335,14.7272921 C61.2030651,15.0353622 61.0623546,15.3211785 60.8632977,15.5847495 C60.6642408,15.8483206 60.3965476,16.0981959 60.06021,16.334383 C59.7238725,16.57057 59.3017409,16.808465 58.7938025,17.048075 L58.7938025,17.0891508 C59.3017409,17.1713029 59.7633401,17.3099323 60.178614,17.5050434 C60.5938879,17.7001544 60.9473802,17.9483182 61.2391015,18.2495423 C61.5308229,18.5507664 61.7556165,18.8981957 61.9134892,19.2918408 C62.071362,19.6854859 62.1502971,20.1219119 62.1502971,20.6011321 C62.1502971,21.1419662 62.0318944,21.6485627 61.7950853,22.1209368 C61.5582762,22.5933109 61.2219437,23.0040648 60.7860777,23.3532109 C60.3502117,23.702357 59.8234052,23.9761929 59.2056424,24.174727 C58.5878795,24.373261 57.8980547,24.4725265 57.1361472,24.4725265 L50.44375,24.4725265 L50.44375,10.1678779 Z M52.853013,16.6065102 L55.9212197,16.6065102 C56.4017019,16.6065102 56.8306975,16.5380512 57.2082192,16.4011311 C57.5857409,16.2642111 57.9031976,16.0742374 58.1605988,15.8312044 C58.418,15.5881713 58.6136219,15.302355 58.7474706,14.973747 C58.8813192,14.6451389 58.9482425,14.2857292 58.9482425,13.8955071 C58.9482425,13.477901 58.8693073,13.0979536 58.7114346,12.7556536 C58.5535619,12.4133535 58.3064604,12.1206913 57.9701229,11.8776583 C57.6337853,11.6346252 57.2082218,11.4480745 56.6934194,11.3180004 C56.178617,11.1879264 55.5608635,11.1228904 54.8401402,11.1228904 L52.853013,11.1228904 L52.853013,16.6065102 Z M52.853013,23.4250935 L55.4578999,23.4250935 C56.1580311,23.4250935 56.7654888,23.358346 57.2802912,23.224849 C57.7950935,23.091352 58.2206571,22.9048012 58.5569946,22.6651912 C58.8933322,22.4255811 59.1421496,22.1363419 59.3034543,21.7974648 C59.4647591,21.4585878 59.5454102,21.0871977 59.5454102,20.6832837 C59.5454102,20.2314476 59.473339,19.8104248 59.3291943,19.4202027 C59.1850497,19.0299806 58.9482441,18.6928201 58.6187706,18.408711 C58.2892971,18.124602 57.8603016,17.9003988 57.3317711,17.7360948 C56.8032407,17.5717907 56.1545995,17.4896399 55.385828,17.4896399 L52.853013,17.4896399 L52.853013,23.4250935 Z M67.8601622,24.7087124 C67.1119828,24.7087124 66.4101461,24.5683715 65.7546311,24.2876854 C65.0991161,24.0069994 64.5259781,23.6253405 64.0351998,23.1426974 C63.5444216,22.6600543 63.1566096,22.0952676 62.8717523,21.4483205 C62.586895,20.8013734 62.4444685,20.1082261 62.4444685,19.3688579 C62.4444685,18.4857238 62.5748831,17.6676388 62.8357163,16.9145787 C63.0965495,16.1615185 63.4637697,15.5111581 63.9373879,14.963478 C64.411006,14.4157979 64.9824281,13.9879292 65.6516711,13.6798591 C66.3209142,13.3717891 67.0639345,13.2177564 67.8807542,13.2177564 C68.6083416,13.2177564 69.2741426,13.3444055 69.8781774,13.5977075 C70.4822122,13.8510096 71.0004388,14.1915931 71.4328727,14.6194682 C71.8653067,15.0473432 72.2016392,15.5419594 72.4418803,16.1033316 C72.6821214,16.6647037 72.8022402,17.253451 72.8022402,17.8695911 L64.5551476,17.8695911 C64.5551476,18.6089593 64.6512426,19.2952606 64.8434355,19.9285158 C65.0356284,20.5617709 65.3033216,21.1077313 65.6465231,21.5664134 C65.9897247,22.0250955 66.4015604,22.3845052 66.8820426,22.6446533 C67.3625248,22.9048013 67.8876154,23.0348734 68.45733,23.0348734 C68.9378122,23.0348734 69.3976954,22.9578571 69.8369934,22.803822 C70.2762914,22.649787 70.6743993,22.447833 71.0313289,22.1979539 C71.3882585,21.9480749 71.6919874,21.6605471 71.9425245,21.335362 C72.1930617,21.010177 72.3698078,20.6764394 72.4727683,20.3341393 L73.1008241,20.611401 C72.9429513,21.1796191 72.68727,21.7118878 72.3337724,22.2082229 C71.9802748,22.704558 71.568439,23.1375611 71.0982529,23.5072452 C70.6280667,23.8769292 70.1132721,24.1695914 69.5538535,24.3852405 C68.994435,24.6008895 68.4298768,24.7087124 67.8601622,24.7087124 Z M70.0532093,16.9864613 C70.0532093,16.5688552 69.9794221,16.1803505 69.8318454,15.8209354 C69.6842687,15.4615203 69.4817828,15.1500319 69.2243817,14.8864609 C68.9669805,14.6228898 68.6649676,14.4158014 68.318334,14.2651893 C67.9717004,14.1145773 67.5993323,14.0392724 67.2012185,14.0392724 C66.871745,14.0392724 66.5542883,14.1145773 66.2488389,14.2651893 C65.9433895,14.4158014 65.6722643,14.6211783 65.4354552,14.8813264 C65.1986461,15.1414745 65.0030242,15.4512514 64.8485835,15.8106665 C64.6941428,16.1700815 64.5997637,16.5585863 64.5654436,16.9761924 L70.0532093,16.9864613 Z M77.6987216,23.94881 C78.000739,23.94881 78.2787281,23.9026002 78.5326972,23.8101792 C78.7866664,23.7177582 79.0045961,23.5962435 79.186493,23.4456315 C79.3683898,23.2950194 79.5108163,23.120449 79.6137768,22.921915 C79.7167373,22.7233809 79.7682167,22.5214269 79.7682167,22.3160469 C79.7682167,21.9805928 79.6841336,21.6879306 79.5159648,21.4380515 C79.3477961,21.1881725 79.1247184,20.9622578 78.8467251,20.7603008 C78.5687318,20.5583437 78.2512751,20.375216 77.8943455,20.2109119 C77.5374159,20.0466079 77.1753436,19.8771719 76.808118,19.7025988 C76.4408923,19.5280258 76.07882,19.3397636 75.7218904,19.1378065 C75.3649608,18.9358495 75.0475041,18.7030889 74.7695108,18.4395179 C74.4915175,18.1759468 74.2684399,17.8713043 74.1002711,17.5255813 C73.9321023,17.1798582 73.8480192,16.7708157 73.8480192,16.2984416 C73.8480192,15.8534515 73.9423982,15.4426976 74.1311591,15.0661675 C74.3199199,14.6896374 74.5807492,14.3644572 74.9136547,14.0906172 C75.2465603,13.8167771 75.6446681,13.6028428 76.1079902,13.4488078 C76.5713124,13.2947727 77.0775271,13.2177564 77.6266496,13.2177564 C77.9904433,13.2177564 78.3336397,13.2434285 78.6562492,13.2947735 C78.9788587,13.3461185 79.2928834,13.445384 79.5983328,13.5925731 C79.9037822,13.7397621 80.209227,13.9468505 80.5146764,14.2138446 C80.8201258,14.4808387 81.1375825,14.8299795 81.467056,15.2612776 L80.6639684,15.9801041 C80.2452624,15.295504 79.7767993,14.7854845 79.2585649,14.4500305 C78.7403306,14.1145764 78.1860683,13.9468519 77.5957616,13.9468519 C77.2868802,13.9468519 77.0020272,13.9862158 76.741194,14.0649448 C76.4803608,14.1436738 76.2572831,14.2497853 76.0719543,14.3832823 C75.8866254,14.5167793 75.7424829,14.6725235 75.6395224,14.8505195 C75.536562,15.0285156 75.4850825,15.2167778 75.4850825,15.4153118 C75.4850825,15.7439199 75.5777455,16.0314477 75.7630744,16.2779037 C75.9484032,16.5243598 76.1920727,16.7468515 76.4940901,16.9453855 C76.7961075,17.1439196 77.1393039,17.3270474 77.5236897,17.4947744 C77.9080754,17.6625014 78.3027513,17.8336489 78.7077292,18.0082219 C79.112707,18.182795 79.5073829,18.3693457 79.8917687,18.5678798 C80.2761544,18.7664138 80.6193509,18.9974629 80.9213683,19.261034 C81.2233856,19.524605 81.4670551,19.8292475 81.652384,20.1749706 C81.8377128,20.5206937 81.9303758,20.9228902 81.9303758,21.3815723 C81.9303758,21.8471004 81.8428607,22.2835265 81.6678279,22.6908636 C81.4927951,23.0982006 81.2302499,23.4507644 80.8801843,23.7485655 C80.5301187,24.0463666 80.0891113,24.2808386 79.5571488,24.4519886 C79.0251864,24.6231387 78.4057168,24.7087124 77.6987216,24.7087124 C77.3761121,24.7087124 77.0449276,24.6830403 76.705158,24.6316953 C76.3653884,24.5803503 76.022192,24.4810847 75.6755584,24.3338957 C75.3289248,24.1867067 74.9822964,23.9796182 74.6356629,23.7126242 C74.2890293,23.4456301 73.9509808,23.0964893 73.6215073,22.6651912 L74.5172589,21.8539441 C74.7849561,22.2304741 75.0423535,22.5505199 75.2894586,22.814091 C75.5365637,23.077662 75.7853811,23.2933078 76.0359183,23.4610349 C76.2864554,23.6287619 76.5472847,23.7519881 76.818414,23.8307171 C77.0895432,23.9094461 77.3829761,23.94881 77.6987216,23.94881 Z M89.0404963,23.0656803 C88.745343,23.5722844 88.3540991,23.9727695 87.8667528,24.2671475 C87.3794066,24.5615256 86.7788128,24.7087124 86.0649536,24.7087124 C85.6942959,24.7087124 85.3734072,24.6470993 85.102278,24.5238713 C84.8311487,24.4006433 84.6063551,24.2260728 84.4278902,24.0001548 C84.2494254,23.7742367 84.1172948,23.5038237 84.0314944,23.1889077 C83.945694,22.8739916 83.9027945,22.5248508 83.9027945,22.1414747 L83.9027945,14.3678789 L81.9877393,14.3678789 L81.9877393,13.8236245 C82.6055021,13.8236245 83.1134328,13.7123786 83.5115466,13.4898836 C83.9096604,13.2673885 84.2356971,12.966169 84.4896662,12.5862159 C84.7436354,12.2062628 84.9426893,11.7664138 85.086834,11.2666557 C85.2309786,10.7668976 85.3579613,10.2363404 85.4677858,9.6749683 L86.0958416,9.6749683 L86.0958416,13.4436733 L88.5771765,13.4436733 L88.5771765,14.3678789 L86.0958416,14.3678789 L86.0958416,22.1414747 C86.0958416,22.3057787 86.1267292,22.4598114 86.1885055,22.6035775 C86.2502818,22.7473435 86.3343649,22.8722812 86.4407574,22.9783942 C86.5471499,23.0845072 86.6741326,23.1683695 86.8217093,23.2299835 C86.9692859,23.2915975 87.1254403,23.322404 87.2901771,23.322404 C87.5372822,23.322404 87.7620758,23.2625024 87.9645648,23.1426974 C88.1670537,23.0228924 88.3437999,22.8739941 88.4948086,22.695998 L89.0404963,23.0656803 Z M95.6108125,13.4436733 L99.5232909,21.7923304 L103.271033,13.4436733 L104.280041,13.4436733 L99.296779,24.595754 L98.5245793,24.595754 L93.3045094,13.4436733 L95.6108125,13.4436733 Z M105.799436,7.79575028 C105.971036,7.79575028 106.134055,7.82484535 106.288496,7.88303636 C106.442936,7.94122738 106.576783,8.01995521 106.690039,8.11922223 C106.803296,8.21848926 106.894243,8.33486954 106.962883,8.46836656 C107.031524,8.60186359 107.065843,8.74391599 107.065843,8.89452803 C107.065843,9.04514006 107.031524,9.18719246 106.962883,9.32068949 C106.894243,9.45418652 106.803296,9.5705668 106.690039,9.66983382 C106.576783,9.76910084 106.442936,9.84782868 106.288496,9.90601969 C106.134055,9.9642107 105.971036,9.99330577 105.799436,9.99330577 C105.627835,9.99330577 105.466533,9.9642107 105.315524,9.90601969 C105.164515,9.84782868 105.032385,9.76910084 104.919128,9.66983382 C104.805872,9.5705668 104.714925,9.45418652 104.646284,9.32068949 C104.577644,9.18719246 104.543324,9.04514006 104.543324,8.89452803 C104.543324,8.74391599 104.577644,8.60186359 104.646284,8.46836656 C104.714925,8.33486954 104.805872,8.21848926 104.919128,8.11922223 C105.032385,8.01995521 105.164515,7.94122738 105.315524,7.88303636 C105.466533,7.82484535 105.627835,7.79575028 105.799436,7.79575028 Z M104.728652,13.8441624 L106.273052,13.2177564 L106.911403,13.2177564 L106.911403,24.4725265 L104.728652,24.4725265 L104.728652,13.8441624 Z M112.127061,23.94881 C112.429078,23.94881 112.707067,23.9026002 112.961036,23.8101792 C113.215005,23.7177582 113.432935,23.5962435 113.614832,23.4456315 C113.796729,23.2950194 113.939155,23.120449 114.042116,22.921915 C114.145076,22.7233809 114.196556,22.5214269 114.196556,22.3160469 C114.196556,21.9805928 114.112473,21.6879306 113.944304,21.4380515 C113.776135,21.1881725 113.553057,20.9622578 113.275064,20.7603008 C112.997071,20.5583437 112.679614,20.375216 112.322684,20.2109119 C111.965755,20.0466079 111.603683,19.8771719 111.236457,19.7025988 C110.869231,19.5280258 110.507159,19.3397636 110.150229,19.1378065 C109.7933,18.9358495 109.475843,18.7030889 109.19785,18.4395179 C108.919856,18.1759468 108.696779,17.8713043 108.52861,17.5255813 C108.360441,17.1798582 108.276358,16.7708157 108.276358,16.2984416 C108.276358,15.8534515 108.370737,15.4426976 108.559498,15.0661675 C108.748259,14.6896374 109.009088,14.3644572 109.341994,14.0906172 C109.674899,13.8167771 110.073007,13.6028428 110.536329,13.4488078 C110.999651,13.2947727 111.505866,13.2177564 112.054989,13.2177564 C112.418782,13.2177564 112.761979,13.2434285 113.084588,13.2947735 C113.407198,13.3461185 113.721222,13.445384 114.026672,13.5925731 C114.332121,13.7397621 114.637566,13.9468505 114.943015,14.2138446 C115.248465,14.4808387 115.565921,14.8299795 115.895395,15.2612776 L115.092307,15.9801041 C114.673601,15.295504 114.205138,14.7854845 113.686904,14.4500305 C113.16867,14.1145764 112.614407,13.9468519 112.024101,13.9468519 C111.715219,13.9468519 111.430366,13.9862158 111.169533,14.0649448 C110.9087,14.1436738 110.685622,14.2497853 110.500293,14.3832823 C110.314964,14.5167793 110.170822,14.6725235 110.067861,14.8505195 C109.964901,15.0285156 109.913421,15.2167778 109.913421,15.4153118 C109.913421,15.7439199 110.006084,16.0314477 110.191413,16.2779037 C110.376742,16.5243598 110.620412,16.7468515 110.922429,16.9453855 C111.224446,17.1439196 111.567643,17.3270474 111.952029,17.4947744 C112.336414,17.6625014 112.73109,17.8336489 113.136068,18.0082219 C113.541046,18.182795 113.935722,18.3693457 114.320108,18.5678798 C114.704493,18.7664138 115.04769,18.9974629 115.349707,19.261034 C115.651725,19.524605 115.895394,19.8292475 116.080723,20.1749706 C116.266052,20.5206937 116.358715,20.9228902 116.358715,21.3815723 C116.358715,21.8471004 116.2712,22.2835265 116.096167,22.6908636 C115.921134,23.0982006 115.658589,23.4507644 115.308523,23.7485655 C114.958458,24.0463666 114.51745,24.2808386 113.985488,24.4519886 C113.453525,24.6231387 112.834056,24.7087124 112.127061,24.7087124 C111.804451,24.7087124 111.473267,24.6830403 111.133497,24.6316953 C110.793727,24.5803503 110.450531,24.4810847 110.103897,24.3338957 C109.757264,24.1867067 109.410635,23.9796182 109.064002,23.7126242 C108.717368,23.4456301 108.37932,23.0964893 108.049846,22.6651912 L108.945598,21.8539441 C109.213295,22.2304741 109.470692,22.5505199 109.717798,22.814091 C109.964903,23.077662 110.21372,23.2933078 110.464257,23.4610349 C110.714794,23.6287619 110.975624,23.7519881 111.246753,23.8307171 C111.517882,23.9094461 111.811315,23.94881 112.127061,23.94881 Z M118.753269,7.79575028 C118.92487,7.79575028 119.087888,7.82484535 119.242329,7.88303636 C119.39677,7.94122738 119.530616,8.01995521 119.643873,8.11922223 C119.757129,8.21848926 119.848076,8.33486954 119.916717,8.46836656 C119.985357,8.60186359 120.019677,8.74391599 120.019677,8.89452803 C120.019677,9.04514006 119.985357,9.18719246 119.916717,9.32068949 C119.848076,9.45418652 119.757129,9.5705668 119.643873,9.66983382 C119.530616,9.76910084 119.39677,9.84782868 119.242329,9.90601969 C119.087888,9.9642107 118.92487,9.99330577 118.753269,9.99330577 C118.581668,9.99330577 118.420366,9.9642107 118.269357,9.90601969 C118.118349,9.84782868 117.986218,9.76910084 117.872962,9.66983382 C117.759705,9.5705668 117.668758,9.45418652 117.600118,9.32068949 C117.531477,9.18719246 117.497158,9.04514006 117.497158,8.89452803 C117.497158,8.74391599 117.531477,8.60186359 117.600118,8.46836656 C117.668758,8.33486954 117.759705,8.21848926 117.872962,8.11922223 C117.986218,8.01995521 118.118349,7.94122738 118.269357,7.88303636 C118.420366,7.82484535 118.581668,7.79575028 118.753269,7.79575028 Z M117.682486,13.8441624 L119.226885,13.2177564 L119.865237,13.2177564 L119.865237,24.4725265 L117.682486,24.4725265 L117.682486,13.8441624 Z M126.934173,24.7087124 C126.089897,24.7087124 125.309126,24.5615256 124.591834,24.2671475 C123.874543,23.9727695 123.256789,23.5722844 122.738555,23.0656803 C122.220321,22.5590762 121.815349,21.9651944 121.523628,21.2840173 C121.231906,20.6028401 121.086048,19.8754634 121.086048,19.1018652 C121.086048,18.287191 121.231906,17.5221619 121.523628,16.8067547 C121.815349,16.0913475 122.220321,15.4683707 122.738555,14.9378056 C123.256789,14.4072405 123.874543,13.9879292 124.591834,13.6798591 C125.309126,13.3717891 126.089897,13.2177564 126.934173,13.2177564 C127.778449,13.2177564 128.555789,13.3580973 129.266216,13.6387833 C129.976644,13.9194694 130.592681,14.3045512 131.114348,14.7940403 C131.636014,15.2835294 132.042702,15.8585849 132.334423,16.5192241 C132.626144,17.1798632 132.772003,17.8867023 132.772003,18.6397624 C132.772003,19.4749746 132.626144,20.2605415 132.334423,20.9964867 C132.042702,21.7324318 131.636014,22.3759463 131.114348,22.9270494 C130.592681,23.4781526 129.976644,23.9128671 129.266216,24.2312062 C128.555789,24.5495453 127.778449,24.7087124 126.934173,24.7087124 Z M127.346013,23.8974653 C127.778447,23.8974653 128.174839,23.7862194 128.535201,23.5637244 C128.895562,23.3412293 129.207871,23.0434327 129.472136,22.6703257 C129.736401,22.2972186 129.940603,21.8607925 130.084748,21.3610344 C130.228893,20.8612763 130.300964,20.3341421 130.300964,19.779616 C130.300964,18.9786338 130.232325,18.2307194 130.095044,17.5358502 C129.957763,16.8409811 129.734686,16.2334075 129.425804,15.7131114 C129.116923,15.1928153 128.715383,14.7837729 128.221173,14.4859718 C127.726962,14.1881707 127.119505,14.0392724 126.398782,14.0392724 C126.028124,14.0392724 125.6712,14.1453839 125.327998,14.3576099 C124.984796,14.569836 124.681068,14.8607867 124.416802,15.2304707 C124.152537,15.6001548 123.941471,16.0314464 123.783599,16.5243585 C123.625726,17.0172707 123.546791,17.5409819 123.546791,18.095508 C123.546791,18.8964902 123.63259,19.6495391 123.804191,20.3546772 C123.975791,21.0598154 124.222893,21.6742348 124.545502,22.1979539 C124.868112,22.721673 125.26622,23.1358499 125.739838,23.440497 C126.213456,23.745144 126.748842,23.8974653 127.346013,23.8974653 Z M133.889854,13.4436733 L136.082901,13.4436733 L136.082901,15.4563877 C136.748712,14.7101735 137.441969,14.1505213 138.162692,13.7774142 C138.883415,13.4043071 139.617856,13.2177564 140.366035,13.2177564 C140.750421,13.2177564 141.112493,13.3050416 141.452263,13.4796146 C141.792032,13.6541876 142.087181,13.8920826 142.337718,14.1933067 C142.588255,14.4945308 142.787309,14.848806 142.934886,15.2561431 C143.082463,15.6634802 143.15625,16.0964833 143.15625,16.5551654 L143.15625,24.4725265 L140.952907,24.4725265 L140.952907,16.9248476 C140.952907,16.1991715 140.788173,15.6480766 140.458699,15.2715465 C140.129226,14.8950165 139.707094,14.7067542 139.192292,14.7067542 C138.958915,14.7067542 138.711813,14.7444067 138.45098,14.8197127 C138.190147,14.8950187 137.925886,15.0028416 137.658188,15.1431846 C137.390491,15.2835277 137.122798,15.4512522 136.855101,15.6463632 C136.587403,15.8414743 136.330006,16.0588316 136.082901,16.2984416 L136.082901,24.4725265 L133.889854,24.4725265 L133.889854,13.4436733 Z" id="Best-vision"></path>
            </g>
        </g>
    </g>
</svg>