<?xml version="1.0" encoding="UTF-8"?>
<svg width="35px" height="43px" viewBox="0 0 35 43" version="1.1" xmlns="http://www.w3.org/2000/svg" xmlns:xlink="http://www.w3.org/1999/xlink">
    <!-- Generator: Sketch 44.1 (41455) - http://www.bohemiancoding.com/sketch -->
    <title>man2 copy</title>
    <desc>Created with Sketch.</desc>
    <defs>
        <circle id="path-1" cx="15.2" cy="15.2" r="15.2"></circle>
        <path d="M19.76,4.53873738 L28.2495859,6.8768125 C29.2123325,7.21571586 29.9938291,7.94500586 30.4,8.87503373 L30.4,11.856 L0,11.856 L0,8.87503373 C0.40617094,7.94500586 1.18766747,7.21571586 2.15041406,6.8768125 L10.64,4.53873738 L10.64,1.687539e-16 L19.76,3.37507799e-17 L19.76,4.53873738 Z" id="path-3"></path>
    </defs>
    <g id="Page-1" stroke="none" stroke-width="1" fill="none" fill-rule="evenodd">
        <g id="index1" transform="translate(-451.000000, -650.000000)">
            <g id="man2-copy" transform="translate(451.000000, 652.000000)">
                <path d="M12.4024993,34.1009803 L17.7140602,40.5333333 L23.141548,34.0790274 C21.4235038,34.5702717 19.6091393,34.8333333 17.7333333,34.8333333 C15.8856659,34.8333333 14.0976102,34.5781047 12.4024993,34.1009803 Z" id="Combined-Shape" fill="#F57923"></path>
                <g id="male3" transform="translate(2.533333, 0.000000)">
                    <circle id="Oval-5" stroke="#F57923" stroke-width="4" cx="15.2" cy="15.2" r="15.2"></circle>
                    <mask id="mask-2" fill="white">
                        <use xlink:href="#path-1"></use>
                    </mask>
                    <use id="circle" fill="#F5EEE5" xlink:href="#path-1"></use>
                    <g id="body" mask="url(#mask-2)">
                        <g transform="translate(0.000000, 19.544000)">
                            <mask id="mask-4" fill="white">
                                <use xlink:href="#path-3"></use>
                            </mask>
                            <use id="shoulders" stroke="none" fill="#E6C19C" fill-rule="evenodd" xlink:href="#path-3"></use>
                            <path d="M0,-0.912 L30.4,-0.912 L30.4,11.856 L0,11.856 L0,-0.912 Z M15.2,8.208 C18.5578913,8.208 21.28,6.3025239 21.28,3.952 C21.28,1.6014761 18.5578913,-0.304 15.2,-0.304 C11.8421087,-0.304 9.12,1.6014761 9.12,3.952 C9.12,6.3025239 11.8421087,8.208 15.2,8.208 Z" id="shirt" stroke="none" fill="#4990E2" fill-rule="evenodd" mask="url(#mask-4)"></path>
                            <path d="M15.2,9.12 C11.338425,9.12 8.208,6.8742603 8.208,4.104 C8.208,1.3337397 11.338425,-0.912 15.2,-0.912 C19.061575,-0.912 22.192,1.3337397 22.192,4.104 C22.192,6.8742603 19.061575,9.12 15.2,9.12 Z M15.2,7.904 C18.3899967,7.904 20.976,6.06657661 20.976,3.8 C20.976,1.53342339 18.3899967,-0.304 15.2,-0.304 C12.0100033,-0.304 9.424,1.53342339 9.424,3.8 C9.424,6.06657661 12.0100033,7.904 15.2,7.904 Z" id="lace" stroke="none" fill="#2768B4" fill-rule="evenodd" mask="url(#mask-4)"></path>
                            <path d="M15.2054442,5.16799416 C14.689677,5.16896389 14.0206005,5.04915533 13.5790397,4.82218028 C13.0514264,4.5509718 11.1344535,2.98270469 10.4923888,2.29686228 C9.63109257,1.37684043 9.21827615,0.244151529 9.08539273,-1.73692668 C8.9525093,-3.71800488 8.45011092,-10.7644284 8.45011092,-12.3880056 C8.45011092,-14.6781053 10.1760766,-18.2220514 15.1834944,-18.2399366 C15.1887826,-18.2399838 15.1940813,-18.2400048 15.1993907,-18.2399998 C15.2014072,-18.2399979 15.2034232,-18.2399954 15.2054387,-18.2399924 C15.2074511,-18.2399954 15.2094671,-18.2399979 15.2114836,-18.2399998 C15.216793,-18.2400048 15.2220918,-18.2399838 15.2273799,-18.2399366 C20.2347977,-18.2220514 21.9607634,-14.6781053 21.9607634,-12.3880056 C21.9607634,-10.7644284 21.458365,-3.71800488 21.3254816,-1.73692668 C21.1925982,0.244151529 20.7797817,1.37684043 19.9184855,2.29686228 C19.2764208,2.98270469 17.3594479,4.5509718 16.8318346,4.82218028 C16.3902738,5.04915533 15.7211973,5.16896389 15.2054301,5.16799416 L15.2054442,5.16799416 Z" id="head-shadow-shadow" stroke="none" fill="#D4B08C" fill-rule="evenodd" mask="url(#mask-4)"></path>
                        </g>
                    </g>
                    <path d="M15.2054435,23.4960127 C14.7416524,23.4967432 14.1400016,23.4064977 13.7429388,23.2355293 C13.2684954,23.0312422 11.5447041,21.8499489 10.9673431,21.3333398 C10.1928433,20.6403357 9.82162821,19.7871406 9.70213603,18.2948984 C9.58264384,16.8026562 9.13087431,11.4949554 9.13087431,10.272 C9.13087431,8.54698808 10.682907,5.87751962 15.1857057,5.86404759 C15.1904609,5.8640121 15.1952257,5.86399622 15.2,5.864 C15.2018133,5.86400144 15.2036262,5.8640033 15.2054386,5.8640056 C15.2072481,5.8640033 15.209061,5.86400144 15.2108743,5.864 C15.2156486,5.86399622 15.2204134,5.8640121 15.2251686,5.86404759 C19.7279673,5.87751962 21.28,8.54698808 21.28,10.272 C21.28,11.4949554 20.8282305,16.8026562 20.7087383,18.2948984 C20.5892461,19.7871406 20.218031,20.6403357 19.4435313,21.3333398 C18.8661702,21.8499489 17.1423789,23.0312422 16.6679355,23.2355293 C16.2708727,23.4064977 15.669222,23.4967432 15.2054308,23.4960127 L15.2054435,23.4960127 Z" id="head" fill="#F2CEA5" mask="url(#mask-2)"></path>
                    <g id="hair" mask="url(#mask-2)">
                        <g transform="translate(7.904000, 4.040000)" id="Path-5">
                            <path d="M10.2988043,11.6042314 C10.2988043,11.6042314 10.0594488,9.70196777 9.16752957,9.40967578 C9.04809763,8.85622656 8.71833456,7.28735352 8.72408652,6.4136875 C8.72983847,5.54002148 8.8106998,4.67221875 9.30811386,3.96164844 C9.85939877,3.17412207 11.0251461,2.72865234 11.6331461,2.72865234 C12.3400787,3.14660906 13.9734056,4.11669689 14.497025,4.69999512 C14.766587,5.00028014 14.3771432,5.23513086 14.3771432,5.23513086 C14.3771432,5.23513086 14.0090605,5.08751407 13.8459021,5.04485572 C13.0779342,4.84406772 11.4234761,4.67170826 10.8899381,5.43296094 C10.2430475,6.35594531 10.2490628,9.02140783 10.2440865,9.424 C10.2397076,9.77826465 10.2988043,11.6042314 10.2988043,11.6042314 Z" fill="#452228" transform="translate(11.658043, 7.166442) scale(-1, 1) translate(-11.658043, -7.166442) "></path>
                            <path d="M0.443517359,9.40967578 C1.33543661,9.70196777 1.57167944,11.6042314 1.57167944,11.6042314 C1.57167944,11.6042314 1.5156954,9.77826465 1.5200743,9.424 C1.52681692,8.92608275 1.5728762,6.67114591 2.55583398,5.57557227 C3.63994727,4.36725391 5.0955625,3.97122266 5.91582812,4.50025391 C6.3319115,4.76860735 7.75760352,6.18268164 9.28511612,5.02123012 C10.2101651,4.31786469 11.856,2.736 11.856,2.736 C11.856,2.736 10.9727966,0.021375011 6.9602341,0.34719531 C5.26212239,0.485082076 3.38823121,0.0777812472 3.38823121,0.0777812472 C3.38823121,0.0777812472 3.36122511,0.848456003 3.67405078,1.24227344 C1.14209658,1.95109526 0.344162686,3.75859224 0.101437954,5.1584897 C0.0503823883,5.42403594 0.0239210398,5.69769087 0.0109538432,5.97453357 C0.0024314961,6.13634301 -0.00013251937,6.28408531 7.43045526e-05,6.4136875 C-0.00567764857,7.28735352 0.324085412,8.85622656 0.443517359,9.40967578 Z" fill="#6B363E"></path>
                        </g>
                    </g>
                </g>
            </g>
        </g>
    </g>
</svg>