<?xml version="1.0" encoding="UTF-8"?>
<svg width="129px" height="33px" viewBox="0 0 129 33" version="1.1" xmlns="http://www.w3.org/2000/svg" xmlns:xlink="http://www.w3.org/1999/xlink">
    <!-- Generator: Sketch 48.1 (47250) - http://www.bohemiancoding.com/sketch -->
    <title>logo</title>
    <desc>Created with Sketch.</desc>
    <defs></defs>
    <g id="注册页1" stroke="none" stroke-width="1" fill="none" fill-rule="evenodd" transform="translate(-58.000000, -44.000000)">
        <g id="logo" transform="translate(53.000000, 34.000000)" fill="#333333">
            <g transform="translate(5.000000, 10.000000)">
                <path d="M5.61645694,14.8150496 L7.2666622,16.1168903 C7.46483889,24.0612082 13.4654537,30.4354189 20.8383667,30.4354189 C28.0174948,30.4354189 33.9862364,24.0095652 34.1705714,16.0885651 L35.8116694,14.6547603 C35.8314511,15.0040928 35.8414905,15.3563433 35.8414905,15.7111812 C35.8414905,24.6798979 29.0919782,32.085157 20.8383667,32.085157 C12.3843036,32.085157 5.59507593,24.7222994 5.59507593,15.7111812 C5.59507593,15.4104739 5.60226094,15.1116988 5.61645694,14.8150496 Z" id="Combined-Shape" fill-rule="nonzero"></path>
                <path d="M6.83466795,9.61814702 C9.12320744,4.05696802 14.5441736,0.158113904 20.9140824,0.158113904 C27.0220751,0.158113904 32.3029334,3.94124255 34.6383097,9.33982295 L33.2290566,10.282139 C31.2130379,5.31161157 26.4362178,1.80785205 20.9140824,1.80785205 C15.1087549,1.80785205 10.1841291,5.45066226 8.23349713,10.6070917 L6.83466795,9.61814702 Z" id="Combined-Shape" fill-rule="nonzero"></path>
                <path d="M0.00672031889,6.92665033 C0.00672031889,6.92665033 16.0114773,22.1919504 20.8383667,22.1346868 C25.8147503,22.0771094 41.6700132,6.92665033 41.6700132,6.92665033 C41.6700132,6.92665033 27.5599276,17.7476103 20.8383667,17.791658 C14.2663,17.9033393 0.00672031889,6.92665033 0.00672031889,6.92665033 Z" id="Path-2"></path>
                <path d="M46.3395507,2.42932593 L43.1428058,5.81497933 C43.1428058,5.81497933 43.5327983,5.26173131 43.466795,4.88145822 C43.4007917,4.50118512 42.0887221,4.37712524 42.0887221,4.37712524 L46.3395507,2.42932593 Z" id="Path-4" transform="translate(44.214136, 4.122153) rotate(5.000000) translate(-44.214136, -4.122153) "></path>
            </g>
            <path d="M57,19.9635701 L61.7971539,19.9635701 C62.4299367,19.9635701 63.0114041,20.0344053 63.5415735,20.1760777 C64.0717428,20.3177502 64.5263705,20.5160886 64.9054701,20.771099 C65.2845698,21.0261094 65.5795789,21.3321172 65.7905065,21.6891318 C66.0014342,22.0461463 66.1068964,22.4399898 66.1068964,22.870674 C66.1068964,23.1936871 66.0726924,23.4826945 66.0042835,23.7377049 C65.9358745,23.9927153 65.819011,24.2293047 65.6536893,24.4474803 C65.4883677,24.6656558 65.2660419,24.8724945 64.9867054,25.0680024 C64.7073688,25.2635104 64.3567782,25.4604321 63.934923,25.6587735 L63.934923,25.6927747 C64.3567782,25.7607775 64.7401476,25.8755305 65.0850427,26.037037 C65.4299379,26.1985436 65.7235219,26.4039656 65.9658036,26.653309 C66.2080853,26.9026525 66.394782,27.1902433 66.5258991,27.5160899 C66.6570163,27.8419365 66.7225739,28.2031957 66.7225739,28.5998786 C66.7225739,29.0475635 66.6242375,29.4669076 66.4275617,29.8579235 C66.230886,30.2489394 65.9515536,30.5889482 65.5895563,30.8779599 C65.2275589,31.1669717 64.7900332,31.3936442 64.276966,31.5579842 C63.7638989,31.7223242 63.1909825,31.804493 62.5581997,31.804493 L57,31.804493 L57,19.9635701 Z M59.0009519,25.2932605 L61.5491726,25.2932605 C61.9482249,25.2932605 62.3045162,25.2365923 62.6180572,25.1232544 C62.9315982,25.0099165 63.1952538,24.8526624 63.4090318,24.6514876 C63.6228097,24.4503127 63.7852786,24.2137233 63.8964431,23.9417122 C64.0076077,23.6697011 64.0631891,23.3721935 64.0631891,23.0491803 C64.0631891,22.7034996 63.9976315,22.3889915 63.8665144,22.1056466 C63.7353972,21.8223018 63.5301734,21.5800455 63.2508369,21.3788707 C62.9715003,21.1776958 62.6180593,21.0232752 62.1905034,20.9156041 C61.7629474,20.8079331 61.249888,20.7540984 60.6513096,20.7540984 L59.0009519,20.7540984 L59.0009519,25.2932605 Z M59.0009519,30.9374621 L61.1643742,30.9374621 C61.7458503,30.9374621 62.2503588,30.8822106 62.6779147,30.7717061 C63.1054707,30.6612016 63.4589117,30.506781 63.7382482,30.3084396 C64.0175848,30.1100982 64.2242337,29.8706754 64.3582012,29.5901639 C64.4921688,29.3096525 64.5591515,29.0022279 64.5591515,28.667881 C64.5591515,28.2938658 64.4992946,27.9453568 64.3795789,27.6223437 C64.2598633,27.2993305 64.0631905,27.02024 63.7895547,26.7850638 C63.5159189,26.5498875 63.1596276,26.3642994 62.7206701,26.2282939 C62.2817127,26.0922883 61.7430002,26.0242866 61.1045167,26.0242866 L59.0009519,26.0242866 L59.0009519,30.9374621 Z M71.4647565,32 C70.8433752,32 70.2604827,31.8838303 69.7160614,31.6514876 C69.1716402,31.4191448 68.695635,31.10322 68.2880317,30.7037037 C67.8804283,30.3041874 67.558341,29.8366754 67.32176,29.3011536 C67.0851791,28.7656318 66.9668904,28.1918671 66.9668904,27.5798421 C66.9668904,26.8488124 67.0752029,26.1716283 67.2918313,25.5482696 C67.5084596,24.9249109 67.813445,24.3865637 68.2067964,23.9332119 C68.6001479,23.4798601 69.0747279,23.1256843 69.6305507,22.870674 C70.1863734,22.6156636 70.8034699,22.4881603 71.4818587,22.4881603 C72.0861378,22.4881603 72.6391019,22.5929963 73.1407675,22.8026715 C73.6424332,23.0123467 74.0728331,23.2942706 74.4319801,23.6484517 C74.7911271,24.0026328 75.0704594,24.41206 75.2699855,24.8767456 C75.4695117,25.3414312 75.5692732,25.828777 75.5692732,26.3387978 L68.719861,26.3387978 C68.719861,26.9508227 68.7996703,27.5189207 68.9592912,28.0431087 C69.118912,28.5672967 69.3412378,29.019225 69.6262751,29.3989071 C69.9113124,29.7785892 70.2533521,30.0760969 70.6524043,30.291439 C71.0514565,30.5067811 71.4875571,30.6144505 71.960719,30.6144505 C72.3597712,30.6144505 72.7417155,30.5506989 73.1065632,30.4231937 C73.471411,30.2956885 73.8020493,30.1285175 74.0984881,29.9216758 C74.3949269,29.714834 74.6471811,29.4768279 74.8552583,29.2076503 C75.0633356,28.9384726 75.2101276,28.6622155 75.2956388,28.3788707 L75.8172544,28.6083789 C75.6861373,29.0787314 75.4737877,29.519326 75.1801992,29.9301761 C74.8866108,30.3410261 74.5445712,30.699452 74.1540701,31.0054645 C73.763569,31.3114769 73.3360194,31.5537332 72.8714086,31.7322404 C72.4067978,31.9107477 71.9379185,32 71.4647565,32 Z M73.2861358,25.6077717 C73.2861358,25.262091 73.2248537,24.9404994 73.1022877,24.6429872 C72.9797216,24.3454751 72.8115521,24.0876352 72.5977742,23.8694596 C72.3839962,23.6512841 72.1331671,23.479863 71.8452794,23.3551913 C71.5573918,23.2305195 71.2481309,23.1681846 70.9174877,23.1681846 C70.6438518,23.1681846 70.3801963,23.2305195 70.1265131,23.3551913 C69.8728299,23.479863 69.6476538,23.6498674 69.4509781,23.8652095 C69.2543023,24.0805516 69.0918335,24.3369748 68.9635667,24.6344869 C68.8352999,24.9319991 68.7569158,25.2535907 68.7284121,25.5992714 L73.2861358,25.6077717 Z M79.6359209,31.3709775 C79.8867537,31.3709775 80.1176304,31.3327266 80.328558,31.2562234 C80.5394857,31.1797203 80.7204816,31.0791344 80.8715514,30.9544627 C81.0226212,30.8297909 81.1409099,30.6852872 81.2264211,30.5209472 C81.3119323,30.3566072 81.3546872,30.1894362 81.3546872,30.0194293 C81.3546872,29.7417513 81.2848541,29.4994951 81.1451858,29.2926533 C81.0055176,29.0858116 80.8202461,28.8988067 80.5893659,28.7316333 C80.3584857,28.5644598 80.0948301,28.4128726 79.7983913,28.276867 C79.5019525,28.1408615 79.2012427,28.0006079 78.8962527,27.856102 C78.5912628,27.7115961 78.290553,27.5557588 77.9941142,27.3885853 C77.6976754,27.2214118 77.4340198,27.0287402 77.2031396,26.8105647 C76.9722594,26.5923891 76.7869879,26.340216 76.6473197,26.0540376 C76.5076514,25.7678593 76.4378183,25.4292673 76.4378183,25.0382514 C76.4378183,24.669903 76.5162024,24.3298943 76.6729729,24.0182149 C76.8297434,23.7065356 77.0463685,23.437362 77.3228547,23.2106861 C77.5993409,22.9840102 77.9299792,22.8069223 78.3147796,22.6794171 C78.6995799,22.5519119 79.1200036,22.4881603 79.5760633,22.4881603 C79.8782029,22.4881603 80.1632359,22.5094108 80.431171,22.5519126 C80.699106,22.5944143 80.9599113,22.6765831 81.2135945,22.7984214 C81.4672777,22.9202597 81.7209571,23.0916807 81.9746403,23.3126897 C82.2283235,23.5336987 82.491979,23.8227062 82.7656148,24.1797207 L82.0986309,24.774742 C81.7508853,24.2080522 81.3618153,23.7858747 80.9314089,23.5081967 C80.5010026,23.2305187 80.0406743,23.0916818 79.5504101,23.0916818 C79.2938765,23.0916818 79.0572991,23.124266 78.8406708,23.1894353 C78.6240424,23.2546047 78.4387709,23.3424402 78.2848508,23.4529447 C78.1309306,23.5634492 78.0112168,23.6923692 77.9257056,23.8397086 C77.8401944,23.9870479 77.7974394,24.1428852 77.7974394,24.3072253 C77.7974394,24.5792363 77.8743983,24.8172425 78.0283185,25.0212508 C78.1822386,25.2252591 78.3846121,25.4094305 78.6354449,25.5737705 C78.8862777,25.7381105 79.1713108,25.8896977 79.4905526,26.0285367 C79.8097943,26.1673757 80.1375823,26.309046 80.4739263,26.4535519 C80.8102704,26.5980578 81.1380583,26.7524784 81.4573001,26.9168185 C81.7765419,27.0811585 82.0615749,27.2724134 82.3124078,27.4905889 C82.5632406,27.7087645 82.7656141,27.9609377 82.9195342,28.247116 C83.0734543,28.5332943 83.1504133,28.8662195 83.1504133,29.2459016 C83.1504133,29.6312507 83.0777298,29.99251 82.9323608,30.3296903 C82.7869918,30.6668707 82.5689415,30.9587116 82.2782035,31.2052216 C81.9874654,31.4517317 81.621198,31.64582 81.1793901,31.7874924 C80.7375823,31.9291648 80.2230977,32 79.6359209,32 C79.3679858,32 79.0929289,31.9787495 78.810742,31.9362477 C78.5285551,31.893746 78.243522,31.8115772 77.9556343,31.6897389 C77.6677467,31.5679006 77.3798633,31.3964796 77.0919756,31.1754706 C76.8040879,30.9544616 76.5233304,30.6654541 76.2496946,30.3084396 L76.9936382,29.6369156 C77.2159673,29.948595 77.4297421,30.2135184 77.634969,30.431694 C77.8401958,30.6498695 78.0468448,30.8283741 78.254922,30.9672131 C78.4629992,31.1060521 78.6796244,31.2080547 78.9048038,31.273224 C79.1299833,31.3383934 79.3736865,31.3709775 79.6359209,31.3709775 Z M89.0555423,30.6399514 C88.8104102,31.0593018 88.4854726,31.3908104 88.0807196,31.6344869 C87.6759666,31.8781635 87.1771588,32 86.5842812,32 C86.276441,32 86.0099351,31.9489987 85.7847556,31.8469945 C85.5595761,31.7449904 85.3728795,31.6004867 85.2246601,31.4134791 C85.0764407,31.2264714 84.966703,31.0026323 84.8954436,30.7419551 C84.8241843,30.4812778 84.7885552,30.1922704 84.7885552,29.8749241 L84.7885552,23.4401943 L83.198055,23.4401943 L83.198055,22.9896782 C83.7111221,22.9896782 84.132971,22.8975925 84.4636143,22.7134183 C84.7942576,22.5292442 85.0650389,22.2799044 85.2759665,21.9653916 C85.4868942,21.6508788 85.6522133,21.2867861 85.771929,20.8731026 C85.8916446,20.4594191 85.9971069,20.0202411 86.0883188,19.5555556 L86.6099345,19.5555556 L86.6099345,22.675167 L88.6707439,22.675167 L88.6707439,23.4401943 L86.6099345,23.4401943 L86.6099345,29.8749241 C86.6099345,30.0109296 86.6355874,30.1384329 86.6868942,30.2574378 C86.7382009,30.3764426 86.808034,30.4798619 86.8963955,30.5676988 C86.9847571,30.6555358 87.0902193,30.7249542 87.2127854,30.7759563 C87.3353514,30.8269584 87.4650414,30.852459 87.6018593,30.852459 C87.8070862,30.852459 87.9937828,30.8028744 88.1619548,30.7037037 C88.3301268,30.604533 88.4769189,30.4812798 88.6023353,30.3339405 L89.0555423,30.6399514 Z M94.5123507,22.675167 L97.7617597,29.5859138 L100.874352,22.675167 L101.712357,22.675167 L97.573636,31.9064967 L96.9323053,31.9064967 L92.5969096,22.675167 L94.5123507,22.675167 Z M102.974252,18 C103.11677,18 103.252161,18.024084 103.380428,18.0722526 C103.508694,18.1204212 103.619857,18.1855896 103.71392,18.2677596 C103.807982,18.3499296 103.883516,18.4462654 103.940523,18.5567699 C103.997531,18.6672744 104.026034,18.7848607 104.026034,18.9095325 C104.026034,19.0342042 103.997531,19.1517906 103.940523,19.2622951 C103.883516,19.3727996 103.807982,19.4691354 103.71392,19.5513054 C103.619857,19.6334754 103.508694,19.6986438 103.380428,19.7468124 C103.252161,19.794981 103.11677,19.819065 102.974252,19.819065 C102.831733,19.819065 102.697767,19.794981 102.572351,19.7468124 C102.446935,19.6986438 102.337197,19.6334754 102.243135,19.5513054 C102.149072,19.4691354 102.073538,19.3727996 102.016531,19.2622951 C101.959524,19.1517906 101.93102,19.0342042 101.93102,18.9095325 C101.93102,18.7848607 101.959524,18.6672744 102.016531,18.5567699 C102.073538,18.4462654 102.149072,18.3499296 102.243135,18.2677596 C102.337197,18.1855896 102.446935,18.1204212 102.572351,18.0722526 C102.697767,18.024084 102.831733,18 102.974252,18 Z M102.08494,23.0066788 L103.367601,22.4881603 L103.897768,22.4881603 L103.897768,31.804493 L102.08494,31.804493 L102.08494,23.0066788 Z M108.229499,31.3709775 C108.480332,31.3709775 108.711208,31.3327266 108.922136,31.2562234 C109.133064,31.1797203 109.31406,31.0791344 109.465129,30.9544627 C109.616199,30.8297909 109.734488,30.6852872 109.819999,30.5209472 C109.90551,30.3566072 109.948265,30.1894362 109.948265,30.0194293 C109.948265,29.7417513 109.878432,29.4994951 109.738764,29.2926533 C109.599096,29.0858116 109.413824,28.8988067 109.182944,28.7316333 C108.952064,28.5644598 108.688408,28.4128726 108.391969,28.276867 C108.09553,28.1408615 107.794821,28.0006079 107.489831,27.856102 C107.184841,27.7115961 106.884131,27.5557588 106.587692,27.3885853 C106.291253,27.2214118 106.027598,27.0287402 105.796718,26.8105647 C105.565837,26.5923891 105.380566,26.340216 105.240898,26.0540376 C105.101229,25.7678593 105.031396,25.4292673 105.031396,25.0382514 C105.031396,24.669903 105.10978,24.3298943 105.266551,24.0182149 C105.423321,23.7065356 105.639946,23.437362 105.916433,23.2106861 C106.192919,22.9840102 106.523557,22.8069223 106.908358,22.6794171 C107.293158,22.5519119 107.713582,22.4881603 108.169641,22.4881603 C108.471781,22.4881603 108.756814,22.5094108 109.024749,22.5519126 C109.292684,22.5944143 109.553489,22.6765831 109.807172,22.7984214 C110.060856,22.9202597 110.314535,23.0916807 110.568218,23.3126897 C110.821901,23.5336987 111.085557,23.8227062 111.359193,24.1797207 L110.692209,24.774742 C110.344463,24.2080522 109.955393,23.7858747 109.524987,23.5081967 C109.094581,23.2305187 108.634252,23.0916818 108.143988,23.0916818 C107.887454,23.0916818 107.650877,23.124266 107.434249,23.1894353 C107.21762,23.2546047 107.032349,23.3424402 106.878429,23.4529447 C106.724509,23.5634492 106.604795,23.6923692 106.519284,23.8397086 C106.433772,23.9870479 106.391017,24.1428852 106.391017,24.3072253 C106.391017,24.5792363 106.467976,24.8172425 106.621896,25.0212508 C106.775817,25.2252591 106.97819,25.4094305 107.229023,25.5737705 C107.479856,25.7381105 107.764889,25.8896977 108.084131,26.0285367 C108.403372,26.1673757 108.73116,26.309046 109.067504,26.4535519 C109.403848,26.5980578 109.731636,26.7524784 110.050878,26.9168185 C110.37012,27.0811585 110.655153,27.2724134 110.905986,27.4905889 C111.156819,27.7087645 111.359192,27.9609377 111.513112,28.247116 C111.667032,28.5332943 111.743991,28.8662195 111.743991,29.2459016 C111.743991,29.6312507 111.671308,29.99251 111.525939,30.3296903 C111.38057,30.6668707 111.162519,30.9587116 110.871781,31.2052216 C110.581043,31.4517317 110.214776,31.64582 109.772968,31.7874924 C109.33116,31.9291648 108.816676,32 108.229499,32 C107.961564,32 107.686507,31.9787495 107.40432,31.9362477 C107.122133,31.893746 106.8371,31.8115772 106.549212,31.6897389 C106.261325,31.5679006 105.973441,31.3964796 105.685554,31.1754706 C105.397666,30.9544616 105.116908,30.6654541 104.843273,30.3084396 L105.587216,29.6369156 C105.809545,29.948595 106.02332,30.2135184 106.228547,30.431694 C106.433774,30.6498695 106.640423,30.8283741 106.8485,30.9672131 C107.056577,31.1060521 107.273202,31.2080547 107.498382,31.273224 C107.723561,31.3383934 107.967265,31.3709775 108.229499,31.3709775 Z M113.732727,18 C113.875246,18 114.010637,18.024084 114.138903,18.0722526 C114.26717,18.1204212 114.378333,18.1855896 114.472395,18.2677596 C114.566458,18.3499296 114.641991,18.4462654 114.698999,18.5567699 C114.756006,18.6672744 114.78451,18.7848607 114.78451,18.9095325 C114.78451,19.0342042 114.756006,19.1517906 114.698999,19.2622951 C114.641991,19.3727996 114.566458,19.4691354 114.472395,19.5513054 C114.378333,19.6334754 114.26717,19.6986438 114.138903,19.7468124 C114.010637,19.794981 113.875246,19.819065 113.732727,19.819065 C113.590209,19.819065 113.456243,19.794981 113.330827,19.7468124 C113.20541,19.6986438 113.095673,19.6334754 113.00161,19.5513054 C112.907548,19.4691354 112.832014,19.3727996 112.775007,19.2622951 C112.717999,19.1517906 112.689496,19.0342042 112.689496,18.9095325 C112.689496,18.7848607 112.717999,18.6672744 112.775007,18.5567699 C112.832014,18.4462654 112.907548,18.3499296 113.00161,18.2677596 C113.095673,18.1855896 113.20541,18.1204212 113.330827,18.0722526 C113.456243,18.024084 113.590209,18 113.732727,18 Z M112.843415,23.0066788 L114.126077,22.4881603 L114.656244,22.4881603 L114.656244,31.804493 L112.843415,31.804493 L112.843415,23.0066788 Z M120.527168,32 C119.825977,32 119.177526,31.8781635 118.581798,31.6344869 C117.98607,31.3908104 117.473011,31.0593018 117.042605,30.6399514 C116.612198,30.220601 116.275859,29.729005 116.033578,29.1651488 C115.791296,28.6012925 115.670157,27.9991936 115.670157,27.3588342 C115.670157,26.6844735 115.791296,26.0512072 116.033578,25.4590164 C116.275859,24.8668256 116.612198,24.3511457 117.042605,23.9119611 C117.473011,23.4727766 117.98607,23.1256843 118.581798,22.870674 C119.177526,22.6156636 119.825977,22.4881603 120.527168,22.4881603 C121.22836,22.4881603 121.87396,22.6043299 122.463987,22.8366727 C123.054014,23.0690155 123.565649,23.3877737 123.998905,23.7929569 C124.432162,24.1981401 124.769926,24.6741523 125.012208,25.2210079 C125.25449,25.7678635 125.375629,26.3529619 125.375629,26.9763206 C125.375629,27.6676821 125.25449,28.3179488 125.012208,28.9271403 C124.769926,29.5363317 124.432162,30.0690121 123.998905,30.5251973 C123.565649,30.9813826 123.054014,31.3412252 122.463987,31.6047359 C121.87396,31.8682466 121.22836,32 120.527168,32 Z M120.869211,31.328476 C121.228358,31.328476 121.557572,31.2363903 121.856861,31.0522162 C122.15615,30.868042 122.41553,30.6215356 122.635009,30.3126897 C122.854487,30.0038438 123.024082,29.6425845 123.143798,29.228901 C123.263513,28.8152175 123.32337,28.378873 123.32337,27.9198543 C123.32337,27.2568273 123.266364,26.637728 123.152349,26.0625379 C123.038334,25.4873479 122.853062,24.9844183 122.596529,24.5537341 C122.339995,24.1230499 122.006507,23.7844578 121.596053,23.5379478 C121.185599,23.2914377 120.681091,23.1681846 120.082512,23.1681846 C119.774672,23.1681846 119.478238,23.2560202 119.1932,23.431694 C118.908163,23.6073678 118.655909,23.8482073 118.43643,24.1542198 C118.216951,24.4602323 118.041656,24.8172414 117.910539,25.225258 C117.779422,25.6332747 117.713864,26.0667858 117.713864,26.5258045 C117.713864,27.1888315 117.785122,27.8121809 117.927641,28.3958713 C118.07016,28.9795617 118.275384,29.4881581 118.543319,29.9216758 C118.811254,30.3551934 119.141892,30.6980356 119.535243,30.9502125 C119.928595,31.2023894 120.373246,31.328476 120.869211,31.328476 Z M126.304031,22.675167 L128.125411,22.675167 L128.125411,24.3412265 C128.678383,23.7235347 129.25415,23.2602727 129.852728,22.9514268 C130.451306,22.6425809 131.061277,22.4881603 131.682658,22.4881603 C132.0019,22.4881603 132.30261,22.5604121 132.584797,22.704918 C132.866984,22.8494239 133.112112,23.0463456 133.320189,23.2956891 C133.528267,23.5450326 133.693586,23.8382902 133.816152,24.1754706 C133.938718,24.5126509 134,24.8710768 134,25.250759 L134,31.804493 L132.17007,31.804493 L132.17007,25.5567699 C132.17007,24.9560788 132.033254,24.4999004 131.759618,24.188221 C131.485982,23.8765417 131.135392,23.7207043 130.707836,23.7207043 C130.51401,23.7207043 130.308786,23.7518718 130.092158,23.8142077 C129.87553,23.8765435 129.656054,23.9657958 129.433725,24.0819672 C129.211396,24.1981386 128.98907,24.3369755 128.766741,24.4984821 C128.544412,24.6599887 128.330637,24.83991 128.125411,25.0382514 L128.125411,31.804493 L126.304031,31.804493 L126.304031,22.675167 Z" id="Best-vision"></path>
        </g>
    </g>
</svg>